<svg id="Group_7995" data-name="Group 7995" xmlns="http://www.w3.org/2000/svg" width="16.001" height="16.001" viewBox="0 0 16.001 16.001">
  <path id="Path_27" data-name="Path 27" d="M0,0H16V16H0Z" fill="#fff" fill-rule="evenodd"/>
  <path id="Path_28" data-name="Path 28" d="M4.436,27.039H4.391c0-.023-.011-.057-.011-.069s0-.034-.034-.034H4.276v.1H4.242V26.8h.1c.046,0,.08.012.08.057a.067.067,0,0,1-.023.057.06.06,0,0,1,.023.046V27c0,.012,0,.012.011.012v.023Zm-.046-.172c0-.034-.023-.034-.034-.034h-.08V26.9h.069C4.368,26.9,4.391,26.89,4.391,26.867Zm.195.046a.257.257,0,0,0-.263-.252.254.254,0,0,0-.252.252.258.258,0,1,0,.515,0Zm-.034,0a.22.22,0,0,1-.229.218.211.211,0,0,1-.218-.218.217.217,0,0,1,.218-.218A.228.228,0,0,1,4.551,26.913Zm14.108-4.626c0,.344-.218.5-.607.5h-.744v-.344h.744a.237.237,0,0,0,.149-.034.146.146,0,0,0,.046-.1.174.174,0,0,0-.046-.114.2.2,0,0,0-.137-.034c-.355-.012-.8.011-.8-.492a.483.483,0,0,1,.549-.481h.768v.344h-.71a.272.272,0,0,0-.149.023.164.164,0,0,0-.057.126.125.125,0,0,0,.08.115.585.585,0,0,0,.149.023H18.1a.65.65,0,0,1,.447.126A.5.5,0,0,1,18.659,22.287Zm-1.615-.344a.65.65,0,0,0-.447-.126h-.206a.587.587,0,0,1-.149-.023.125.125,0,0,1-.08-.115.134.134,0,0,1,.057-.126.271.271,0,0,1,.149-.023h.71v-.343h-.767c-.412,0-.55.252-.55.481,0,.5.447.481.8.492a.2.2,0,0,1,.137.034.175.175,0,0,1,.046.114.146.146,0,0,1-.046.1.26.26,0,0,1-.149.034h-.744v.344h.744c.389,0,.607-.16.607-.5a.494.494,0,0,0-.114-.344Zm-1.466.515h-.9v-.321h.882v-.321h-.882v-.3h.9v-.332H14.3v1.6h1.282v-.332Zm-1.695-1.191a.961.961,0,0,0-.469-.08h-.882v1.6h.389v-.584h.412c.137,0,.218.012.275.069a.511.511,0,0,1,.069.321v.195h.378v-.309a.528.528,0,0,0-.057-.3.447.447,0,0,0-.195-.137.441.441,0,0,0,.275-.424A.361.361,0,0,0,13.884,21.267Zm-2.176-.08H10.483l-.492.527-.469-.527H7.975v1.6H9.5l.492-.527.469.527H11.2v-.538h.481c.332,0,.664-.092.664-.538s-.344-.527-.641-.527Zm1.867.664a.476.476,0,0,1-.183.023l-.469.012v-.367h.469a.311.311,0,0,1,.183.034.146.146,0,0,1,.08.137.2.2,0,0,1-.08.16Zm-1.867.08h-.5v-.412h.5c.137,0,.229.057.229.195A.208.208,0,0,1,11.708,21.932Zm-1.477.057.6-.63v1.294Zm-.928.469h-.95v-.321H9.2v-.321H8.353v-.3h.962l.424.469-.435.469Zm8.291-2.428h-.549l-.722-1.2v1.2h-.779l-.149-.355h-.8l-.149.355H14a.828.828,0,0,1-.561-.183.838.838,0,0,1-.195-.607.828.828,0,0,1,.206-.63.777.777,0,0,1,.584-.183H14.4v.344h-.366a.405.405,0,0,0-.3.092.519.519,0,0,0-.1.366.573.573,0,0,0,.1.378.382.382,0,0,0,.263.08h.172l.549-1.26h.573l.642,1.512V18.427h.6l.676,1.111V18.427h.389v1.6h0Zm-4.546-1.6h-.389v1.6h.389Zm-.813.069a.921.921,0,0,0-.458-.069H10.9v1.6h.378v-.584h.412a.392.392,0,0,1,.286.069.486.486,0,0,1,.057.309v.206h.389V19.71a.427.427,0,0,0-.069-.286.479.479,0,0,0-.183-.137.455.455,0,0,0,.275-.424.4.4,0,0,0-.206-.366ZM10.62,19.7H9.727v-.321h.882v-.332H9.727v-.286h.893v-.332H9.338v1.6H10.62V19.7ZM9.051,18.427h-.63l-.469,1.088-.5-1.088H6.83v1.512l-.653-1.512H5.6l-.687,1.6H5.33l.149-.355h.8l.149.355h.779V18.771l.561,1.26H8.1l.561-1.26v1.26h.389v-1.6h0Zm6.207.9-.263-.63-.263.63Zm-3.321-.252a.35.35,0,0,1-.195.034h-.469V18.76h.469a.506.506,0,0,1,.195.023.17.17,0,0,1,.069.149.158.158,0,0,1-.069.149Zm-6.321.252.263-.63.263.63ZM18.568,13.4H4.906v5.772l.469-1.065h1l.137.263v-.263H7.677l.263.573.252-.573h3.722a.677.677,0,0,1,.435.126v-.126h1.019v.126a1.364,1.364,0,0,1,.641-.126h1.477l.137.263v-.263h1.088l.16.263v-.263h1.065v2.244H16.862l-.206-.343v.343h-1.34l-.149-.366h-.332l-.149.366h-.7a1.372,1.372,0,0,1-.618-.137v.137h-1.66v-.515c0-.069-.011-.08-.057-.08h-.057v.6H8.387v-.286l-.114.286H7.6l-.114-.275v.275H6.189l-.137-.366H5.719l-.149.366H4.906v6.768H18.568V23.008a1.4,1.4,0,0,1-.561.1h-1v-.137a.883.883,0,0,1-.515.137H13.357V22.6c0-.069-.011-.069-.069-.069h-.057v.584H12.2V22.5a1.261,1.261,0,0,1-.538.08h-.115v.527h-1.26l-.3-.344-.332.344H7.631V20.866H9.693l.3.343.321-.343H11.7a.864.864,0,0,1,.538.137v-.137h1.237A.98.98,0,0,1,14,21v-.137h1.867V21a.761.761,0,0,1,.469-.137h1.042V21a.828.828,0,0,1,.481-.137h.71Z" transform="translate(-3.732 -12.288)" fill="#0077a6" fill-rule="evenodd"/>
</svg>
