<svg xmlns="http://www.w3.org/2000/svg" width="8.652" height="10" viewBox="0 0 8.652 10">
  <path id="Path_3177" data-name="Path 3177" d="M12.151,8.492A1.5,1.5,0,0,0,11.238,7.1l.9-3.5a.515.515,0,0,0-.087-.434A.473.473,0,0,0,11.67,3H5.086L4.927,2.37A.484.484,0,0,0,4.461,2H3.5V3h.591L5.283,7.623a.483.483,0,0,0,.481.37h4.945a.5.5,0,0,1,0,1H4.461a.5.5,0,0,0,0,1h.567A1.533,1.533,0,0,0,5.523,11.7a1.4,1.4,0,0,0,1.721,0,1.533,1.533,0,0,0,.495-1.713H8.873a1.539,1.539,0,0,0,.369,1.6,1.4,1.4,0,0,0,1.564.279,1.528,1.528,0,0,0,.671-2.118A1.513,1.513,0,0,0,12.151,8.492Zm-1.879-1.5H6.143l-.8-3h5.7Zm-3.888,4a.5.5,0,1,1,.481-.5A.49.49,0,0,1,6.384,10.989Zm3.845,0a.5.5,0,1,1,.481-.5A.49.49,0,0,1,10.228,10.989Z" transform="translate(-3.5 -2)" fill="#fff"/>
</svg>
