<svg xmlns="http://www.w3.org/2000/svg" width="16" height="16" viewBox="0 0 16 16">
  <path id="Layer_15" data-name="Layer 15" d="M3.381,5.693h2.7a2.285,2.285,0,0,0,4.5,0h8.034a.382.382,0,0,0,0-.763H10.585a2.285,2.285,0,0,0-4.5,0h-2.7a.382.382,0,0,0,0,.763ZM8.333,3.785A1.526,1.526,0,1,1,6.81,5.311,1.525,1.525,0,0,1,8.333,3.785Zm10.286,6.869h-2.7a2.285,2.285,0,0,0-4.5,0H3.381a.382.382,0,0,0,0,.763h8.034a2.285,2.285,0,0,0,4.5,0h2.7a.382.382,0,0,0,0-.763Zm-4.952,1.908a1.526,1.526,0,1,1,1.524-1.526A1.525,1.525,0,0,1,13.667,12.562Zm4.952,3.816H10.585a2.285,2.285,0,0,0-4.5,0h-2.7a.382.382,0,0,0,0,.763h2.7a2.285,2.285,0,0,0,4.5,0h8.034a.382.382,0,0,0,0-.763ZM8.333,18.286a1.526,1.526,0,1,1,1.524-1.526A1.525,1.525,0,0,1,8.333,18.286Z" transform="translate(19.035 -3) rotate(90)" fill="#848484"/>
</svg>
