<svg xmlns="http://www.w3.org/2000/svg" width="145.99" height="90" viewBox="0 0 145.99 90">
  <g id="_003-cooking" data-name="003-cooking" transform="translate(0.024 -56)">
    <circle id="Ellipse_521" data-name="Ellipse 521" cx="4.562" cy="4.562" r="4.562" transform="translate(15.949 71.967)" fill="#212121"/>
    <circle id="Ellipse_522" data-name="Ellipse 522" cx="4.562" cy="4.562" r="4.562" transform="translate(31.916 56)" fill="#212121"/>
    <path id="Path_14988" data-name="Path 14988" d="M145.242,139.5l-.534-.774c-1.638-2.383-5.585-3.4-8.933-2.3L101.68,147.7l.029.047a8.013,8.013,0,0,0-5,2.889,4.373,4.373,0,0,0-.465,4.622l-.671.324c-8.95-3.242-30.657-.628-50.939,4.482q-1.787.45-3.564.928c-2.241-6.015,3.559-10.392,3.875-10.624l-3.232-2.332a15.769,15.769,0,0,0-4.841,6.045,10.168,10.168,0,0,0-.092,8.108c-3.65,1.056-7.157,2.171-10.475,3.331a33.557,33.557,0,0,1-1.753-13.744c.141-2.03-1.25-3.956-3.632-5.03a10.311,10.311,0,0,0-7.835-.142c-2.453.987-3.975,2.86-3.975,4.892v11.685c0,.493-.553.892-1.233.892a7.056,7.056,0,0,0-4.11,1.237A3.71,3.71,0,0,0,2.078,168.3a20.208,20.208,0,0,0,1.956,7.873c-3.49,2.706-4.738,5.16-3.709,7.3,3.832,7.98,12.636,14.149,24.79,17.373a72.979,72.979,0,0,0,18.634,2.334,83.734,83.734,0,0,0,20.365-2.54c13.156-3.314,24.08-9.482,30.758-17.367,6.769-7.991,8.387-16.786,4.555-24.766a3.89,3.89,0,0,0-.257-.446,10.508,10.508,0,0,0,6.71.852l.027.04.341-.12a9.5,9.5,0,0,0,1.953-.689l33.885-11.956a5.916,5.916,0,0,0,3.511-2.863,3.736,3.736,0,0,0-.354-3.821ZM4.634,182.387c-.316-.657.207-1.659,1.423-2.835a18.2,18.2,0,0,0,5.414,4.829,29.967,29.967,0,0,1-2.979-.351c-2.16-.38-3.53-.963-3.857-1.642h0Zm81.728-18.12c-.481,2.962-1.281,3.572-1.315,3.6l.044.032c-1.888.931-3.96,1.86-6.187,2.777a17.419,17.419,0,0,0,2.909-6.8,2.188,2.188,0,0,1,2.284-1.446,2.73,2.73,0,0,1,1.7.554,1.381,1.381,0,0,1,.562,1.291Zm-44.793,4.17,3.5-2.115a17.907,17.907,0,0,1-2.224-2.284c1.088-.291,2.184-.576,3.279-.852a184.738,184.738,0,0,1,34.238-5.613,52.09,52.09,0,0,1,10.892.374c2.162.38,3.532.963,3.858,1.643s-.248,1.753-1.617,3.023a21.2,21.2,0,0,1-2.6,2c.454-2.722-2.224-5.194-5.981-5.523s-7.171,1.611-7.625,4.333c-1.158,6.177-6.2,9.777-7.606,10.674q-7.863,2.637-16.062,4.693-3.49.879-6.933,1.636c-9.012-1.26-15.384-5.2-18.952-11.74,3.4-1.2,7.025-2.358,10.8-3.449a21.037,21.037,0,0,0,3.031,3.2ZM7,167.644a1.493,1.493,0,0,1,.877-.264c3.2,0,5.792-1.88,5.8-4.2V151.5c0-1.266,1.417-2.292,3.165-2.292a3.827,3.827,0,0,1,2.293.714,1.978,1.978,0,0,1,.866,1.7c-.326,4.8.013,11.862,3.481,18.245a24.428,24.428,0,0,0,8.4,8.99,30.081,30.081,0,0,0,6.8,3.186c-5.093.942-10.265,1.646-15.482,2.11a11.373,11.373,0,0,1-2.3-.222,15.071,15.071,0,0,1-11.5-6.929,17.932,17.932,0,0,1-2.746-8.719A.78.78,0,0,1,7,167.644ZM103.358,155.8l.534-.258a1.4,1.4,0,0,0,.633-2.291,2.856,2.856,0,0,0-3.163-.458l-1.012.488c.036-1.153,1.167-2.136,2.727-2.369a3.878,3.878,0,0,1,3.8,1.392,2.082,2.082,0,0,1-1.019,2.995l-1.255.443a4.444,4.444,0,0,1-1.245.058Z" transform="translate(0 -57.18)" fill="#212121"/>
    <path id="Path_14989" data-name="Path 14989" d="M104,160h4.562v4.562H104Z" transform="translate(-74.365 -81.178)" fill="#212121"/>
    <path id="Path_14990" data-name="Path 14990" d="M96,232h4.562v4.562H96Z" transform="translate(-68.646 -137.379)" fill="#212121"/>
    <path id="Path_14991" data-name="Path 14991" d="M144,304h4.562v4.562H144Z" transform="translate(-102.96 -193.579)" fill="#212121"/>
    <path id="Path_14992" data-name="Path 14992" d="M16,152h4.562v4.562H16Z" transform="translate(-11.456 -74.934)" fill="#212121"/>
    <path id="Path_14993" data-name="Path 14993" d="M63.859,338.875l2.53-3.8c-5.575-3.717-5.821-7.141-5.827-7.285a.433.433,0,0,1,0,.058H56C56,328.445,56.22,333.784,63.859,338.875Z" transform="translate(-40.051 -213.266)" fill="#212121"/>
    <path id="Path_14994" data-name="Path 14994" d="M140.562,113.642c0-2.326,1.034-5.117,2.991-8.072a29.035,29.035,0,0,1,3.186-4l-1.615-1.611-1.613-1.613c-.307.307-7.511,7.6-7.511,15.3Z" transform="translate(-97.241 -30.27)" fill="#212121"/>
  </g>
</svg>
