<svg xmlns="http://www.w3.org/2000/svg" width="184.191" height="90" viewBox="0 0 184.191 90">
  <g id="Group_8070" data-name="Group 8070" transform="translate(-630 -4340)">
    <g id="_004-food-package" data-name="004-food-package" transform="translate(610.087 4360)">
      <g id="Group_8069" data-name="Group 8069" transform="translate(19.913 28.142)">
        <path id="Path_14995" data-name="Path 14995" d="M27.839,205.84l-6.026,8.911H86.1l-6.373-8.911Z" transform="translate(-21.553 -205.84)" fill="#212121"/>
        <path id="Path_14996" data-name="Path 14996" d="M19.913,301H84.468v28.848H19.913Z" transform="translate(-19.913 -287.989)" fill="#212121"/>
      </g>
      <path id="Path_14997" data-name="Path 14997" d="M129.316,24.043V0H81.8V24.043ZM92.809,11.923a4.89,4.89,0,0,1,4.884-4.884h15.613a4.89,4.89,0,0,1,4.884,4.884v.122a4.89,4.89,0,0,1-4.884,4.884H97.693a4.89,4.89,0,0,1-4.884-4.884Z" transform="translate(-53.429)" fill="#212121"/>
    </g>
    <g id="_005-delivery-man" data-name="005-delivery-man" transform="translate(724.553 4340)">
      <path id="Path_14998" data-name="Path 14998" d="M158.179,14.626a7.3,7.3,0,0,0,6.939-5.035l-5.263-1.839,9.884.365h.066a1.757,1.757,0,0,0,.063-3.513l-4.979-.184a7.31,7.31,0,1,0-6.71,10.206Zm0,0" transform="translate(-124.34)" fill="#212121"/>
      <path id="Path_14999" data-name="Path 14999" d="M73.332,369.6A12.515,12.515,0,1,0,85.848,382.12,12.515,12.515,0,0,0,73.332,369.6Zm0,16.649a4.134,4.134,0,1,1,4.134-4.134A4.135,4.135,0,0,1,73.332,386.254Zm0,0" transform="translate(-50.125 -304.635)" fill="#212121"/>
      <path id="Path_15000" data-name="Path 15000" d="M315.968,369.6a12.515,12.515,0,1,0,12.515,12.515A12.515,12.515,0,0,0,315.968,369.6Zm0,16.649a4.134,4.134,0,1,1,4.134-4.134A4.135,4.135,0,0,1,315.968,386.254Zm0,0" transform="translate(-250.11 -304.635)" fill="#212121"/>
      <path id="Path_15001" data-name="Path 15001" d="M75.56,137.933c.877-11.523-9.7-16.235-9.7-16.235l-2.543-5.083-.829-3.3h3.295a2.987,2.987,0,0,0,3-2.981,2.925,2.925,0,0,0-2.924-2.87H58.738a2.91,2.91,0,0,0-.95.161,3.531,3.531,0,0,0-3.687-5.536l-12.388,2.993v-.523a4.848,4.848,0,0,0-4.848-4.848H27.987a4.848,4.848,0,0,0-4.848,4.848V129.3H18.905a2.182,2.182,0,0,0,2.182-2.182V106.491a2.182,2.182,0,0,0-2.182-2.183H2.925a2.183,2.183,0,0,0-2.183,2.183v20.632A2.182,2.182,0,0,0,2.925,129.3H8.57a1.642,1.642,0,0,0-1.642,1.642v7.25a1.642,1.642,0,0,0,1.642,1.641h2.046A23.491,23.491,0,0,0,.05,155.732a3.416,3.416,0,0,0,6.744,1.1,16.656,16.656,0,0,1,33.069,2.862H49.2a16.545,16.545,0,0,1,1.912-7.761H48.171a4.222,4.222,0,0,0,1.481-1.742l8.212-17.846a4.25,4.25,0,0,0-3.211-5.975l-12.941-2v-6.04c-.73-.16-1.969.047-2.937-1.011l-6.847-7.509,8.185,5.528a3.537,3.537,0,0,0,1.557.58c14.1,1.677,13.331,1.617,13.732,1.617a3.532,3.532,0,0,0,.415-7.038l-12.46-1.49-7.476-5.05,6.912,2.575,13.19,1.577a6.031,6.031,0,0,1,5.289,6.645,5.917,5.917,0,0,1-3.307,4.584l5.049,20.139a2.941,2.941,0,0,0,2.836,2.239,17.949,17.949,0,0,1,17.937,17.9v.055a2.925,2.925,0,0,0,5.85.067c0-.03,0-.062,0-.09a23.813,23.813,0,0,0-14.078-21.71Zm-32.409,1.9a1.641,1.641,0,0,0,1.641-1.641v-4.754l3,.463-5.534,12.024a23.624,23.624,0,0,0-6.459-6.092Zm0,0" transform="translate(0 -82.18)" fill="#212121"/>
    </g>
  </g>
</svg>
