<svg xmlns="http://www.w3.org/2000/svg" width="16.642" height="26.738" viewBox="0 0 16.642 26.738">
  <g id="delivery-man" transform="translate(-84.864)">
    <path id="Path_4244" data-name="Path 4244" d="M98.022,120.129a.971.971,0,0,0-.934-.876l-3.158-.048a.436.436,0,0,1-.4-.346l-.7-4.424a.935.935,0,0,0-.99-.814l-3.927.171a.881.881,0,0,0-.938.98s-.017,9.833-.037,10.189l-.137,2.433a4.02,4.02,0,0,1-.276,1.148l-1.59,3.6a.829.829,0,0,0,.571,1.165l.529.131a1.017,1.017,0,0,0,.245.029,1.147,1.147,0,0,0,1.017-.617l1.511-3.08a7.479,7.479,0,0,0,.463-1.285l.853-3.552,2.063,3.156a3.018,3.018,0,0,1,.385,1.068l.4,3.533A1.053,1.053,0,0,0,94,133.6l.6,0a.882.882,0,0,0,.885-.98l-.417-4.2a6.116,6.116,0,0,0-.317-1.339L92.9,122.251l-.011-1.018,4.3-.159a.865.865,0,0,0,.833-.936ZM94,133.3Z" transform="translate(0 -106.863)" fill="#7d7d7d"/>
    <path id="Path_4245" data-name="Path 4245" d="M111.271,5.825A2.913,2.913,0,0,0,114.166,2.6l.976-.11a1.033,1.033,0,0,0,.8-.631l.327-.893a.571.571,0,0,0-.05-.53.547.547,0,0,0-.459-.224c-.022,0-.045,0-.069,0l-2.822.268a2.912,2.912,0,1,0-1.6,5.344Z" transform="translate(-22.097 0)" fill="#7d7d7d"/>
    <path id="Path_4246" data-name="Path 4246" d="M246.644,97l-.281-4.036a.949.949,0,0,0-.933-.869l-5.395.009a.847.847,0,0,0-.85.913l.281,4.036a.949.949,0,0,0,.932.869l5.4-.009a.847.847,0,0,0,.85-.913Zm-6.246.624Z" transform="translate(-145.141 -86.614)" fill="#7d7d7d"/>
  </g>
</svg>
