<svg xmlns="http://www.w3.org/2000/svg" width="184.543" height="89.999" viewBox="0 0 184.543 89.999">
  <g id="Group_8437" data-name="Group 8437" transform="translate(-421.229 -4537.001)">
    <path id="Subtraction_10" data-name="Subtraction 10" d="M13368.142,11521.029h-88.281a5.829,5.829,0,0,1-5.86-5.783v-57.462a5.829,5.829,0,0,1,5.86-5.783h88.281a5.829,5.829,0,0,1,5.86,5.783v57.462A5.829,5.829,0,0,1,13368.142,11521.029Zm-86.368-63.03a2.007,2.007,0,0,0-2,2v52a2,2,0,0,0,2,2h84a2,2,0,0,0,2-2v-52a2,2,0,0,0-2-2Zm83,53h-82v-50h82v50Z" transform="translate(-12852.771 -6915)" fill="#212121"/>
    <path id="Path_14984" data-name="Path 14984" d="M145.449,421.872H129.866V413h-30.4v8.872H83.886a3.028,3.028,0,0,0,0,6.049h61.563a3.028,3.028,0,0,0,0-6.049Z" transform="translate(356.562 4199.079)" fill="#212121"/>
    <g id="_002-hand-graving-smartphone" data-name="002-hand-graving-smartphone" transform="translate(536.998 4557)">
      <g id="Group_8068" data-name="Group 8068" transform="translate(1.23)">
        <path id="Path_14985" data-name="Path 14985" d="M65.094,32.195H57.178A3.74,3.74,0,0,0,53.44,35.94v.406a3.742,3.742,0,0,0,3.741,3.748h7.913a3.751,3.751,0,0,0,3.747-3.748l0-.411A3.738,3.738,0,0,0,65.094,32.195Z" transform="translate(-1.297 -0.036)" fill="#212121"/>
        <path id="Path_14986" data-name="Path 14986" d="M65.035,22.829H63.388V4.729A4.743,4.743,0,0,0,58.657,0H27.449A4.744,4.744,0,0,0,22.72,4.729V17.716C16.425,21.274,9.932,24.991,9.918,25,6.394,26.451,1.23,31.131,1.23,42.183a26.674,26.674,0,0,0,.156,2.778c.029.258.061.506.1.754q.136.97.341,1.852c.049.21.087.429.14.629a18.227,18.227,0,0,0,.632,1.923c.12.3.25.574.381.856s.281.588.432.861c.175.329.35.645.541.946.046.07.1.134.143.2C8.643,59.869,17.039,59.9,17.039,59.9h5.68v5.374A4.742,4.742,0,0,0,27.449,70H58.656a4.743,4.743,0,0,0,4.73-4.726V58.719h.721v0h.92a3.737,3.737,0,0,0,3.742-3.742l0-.408a3.74,3.74,0,0,0-3.743-3.734H57.122a3.733,3.733,0,0,0-3.734,3.737v.415a3.741,3.741,0,0,0,3.737,3.739H60.1v2.532H26.01V27.3c1.712-1.086,3.3-2.131,4.2-2.831,4.58-3.543,8.928-6.364,9.517-8.922.766-3.32-1.782-6.117-6.2-3.82-1.393.723-4.251,2.309-7.516,4.142V7.495L60.1,7.5V22.827H58.055v0h-.928a3.742,3.742,0,0,0-3.744,3.743v.406a3.737,3.737,0,0,0,3.739,3.738h7.911A3.737,3.737,0,0,0,68.77,26.98v-.417A3.733,3.733,0,0,0,65.035,22.829ZM43.049,62.914a2.365,2.365,0,1,1-2.361,2.366A2.364,2.364,0,0,1,43.049,62.914Zm5-58.36H38.061a.572.572,0,1,1,0-1.144h9.986a.572.572,0,0,1,0,1.144Z" transform="translate(-1.23)" fill="#212121"/>
        <path id="Path_14987" data-name="Path 14987" d="M65.094,41.538H57.178a3.748,3.748,0,0,0-3.743,3.746v.41a3.741,3.741,0,0,0,3.743,3.743h7.914a3.745,3.745,0,0,0,3.746-3.743v-.41A3.743,3.743,0,0,0,65.094,41.538Z" transform="translate(-1.297 -0.046)" fill="#212121"/>
      </g>
    </g>
  </g>
</svg>
