<svg xmlns="http://www.w3.org/2000/svg" width="50.361" height="16.002" viewBox="0 0 50.361 16.002">
  <g id="Group_8003" data-name="Group 8003" transform="translate(-1 -22.1)">
    <circle id="Ellipse_515" data-name="Ellipse 515" cx="4.224" cy="4.224" r="4.224" transform="translate(23.5 22.181)" fill="#ef9122"/>
    <path id="Path_14713" data-name="Path 14713" d="M28.7,26.424a4.224,4.224,0,1,1,4.224,4.224" transform="translate(-5.2 -0.019)" fill="#f26e21"/>
    <path id="Path_14714" data-name="Path 14714" d="M30.3,23.418a4.193,4.193,0,0,1,5.93,5.93" transform="translate(-5.5 -0.019)" fill="#f44500"/>
    <path id="Path_14715" data-name="Path 14715" d="M3.274,22.5H1v7.96H3.274a4.406,4.406,0,0,0,2.843-.894A4.017,4.017,0,0,0,7.579,26.48C7.579,24.125,5.874,22.5,3.274,22.5Zm1.868,6.011a3.122,3.122,0,0,1-2.112.65H2.543v-5.28h.406a2.757,2.757,0,0,1,2.112.65,2.6,2.6,0,0,1,.894,1.949A2.428,2.428,0,0,1,5.143,28.511Z" transform="translate(0 -0.075)" fill="#595a5b"/>
    <path id="Path_14716" data-name="Path 14716" d="M10,22.5h1.543v7.96H10Z" transform="translate(-1.69 -0.075)" fill="#595a5b"/>
    <path id="Path_14717" data-name="Path 14717" d="M15.949,25.568c-.975-.325-1.218-.569-1.218-.975a1.028,1.028,0,0,1,1.137-.894,1.571,1.571,0,0,1,1.3.65l.812-1.056a3.539,3.539,0,0,0-2.356-.894,2.383,2.383,0,0,0-2.518,2.274c0,1.137.487,1.625,1.949,2.193a3.159,3.159,0,0,1,1.056.487.893.893,0,0,1,.487.812A1.132,1.132,0,0,1,15.381,29.3a1.894,1.894,0,0,1-1.706-1.056l-.975.975a3.185,3.185,0,0,0,2.762,1.543,2.562,2.562,0,0,0,2.762-2.6C18.223,26.786,17.736,26.218,15.949,25.568Z" transform="translate(-2.196 -0.056)" fill="#595a5b"/>
    <path id="Path_14718" data-name="Path 14718" d="M20.1,26.405a4.127,4.127,0,0,0,4.224,4.143,4.6,4.6,0,0,0,1.949-.487V28.192a2.526,2.526,0,0,1-1.868.894,2.625,2.625,0,0,1-2.681-2.762,2.656,2.656,0,0,1,2.6-2.762,2.561,2.561,0,0,1,1.949.894V22.587a4.082,4.082,0,0,0-1.949-.487A4.489,4.489,0,0,0,20.1,26.405Z" transform="translate(-3.586)" fill="#3b3d3f"/>
    <path id="Path_14719" data-name="Path 14719" d="M42.518,27.861,40.406,22.5H38.7l3.33,8.2h.894l3.493-8.2H44.711Z" transform="translate(-7.077 -0.075)"/>
    <path id="Path_14720" data-name="Path 14720" d="M49,30.46h4.468v-1.3H50.625V26.968h2.762V25.587H50.625V23.881h2.843V22.5H49Z" transform="translate(-9.011 -0.075)"/>
    <path id="Path_14721" data-name="Path 14721" d="M59.13,27.13A2.143,2.143,0,0,0,61,24.856c0-1.462-1.056-2.356-2.843-2.356H55.8v7.96h1.543V27.292h.244L59.78,30.46h1.868L59.13,27.13Zm-1.3-.975h-.487V23.718h.487c.975,0,1.543.406,1.543,1.218S58.805,26.155,57.831,26.155Z" transform="translate(-10.287 -0.075)" fill="#595a5b"/>
    <g id="Group_7999" data-name="Group 7999" transform="translate(1 22.344)">
      <path id="Path_14722" data-name="Path 14722" d="M3.274,22.5H1v7.96H3.274a4.406,4.406,0,0,0,2.843-.894A4.017,4.017,0,0,0,7.579,26.48C7.579,24.125,5.874,22.5,3.274,22.5Zm1.868,6.011a3.122,3.122,0,0,1-2.112.65H2.543v-5.28h.406a2.757,2.757,0,0,1,2.112.65,2.6,2.6,0,0,1,.894,1.949A2.428,2.428,0,0,1,5.143,28.511Z" transform="translate(-1 -22.419)" fill="#595a5b"/>
      <path id="Path_14723" data-name="Path 14723" d="M10,22.5h1.543v7.96H10Z" transform="translate(-2.69 -22.419)" fill="#595a5b"/>
      <path id="Path_14724" data-name="Path 14724" d="M15.949,25.568c-.975-.325-1.218-.569-1.218-.975a1.028,1.028,0,0,1,1.137-.894,1.571,1.571,0,0,1,1.3.65l.812-1.056a3.539,3.539,0,0,0-2.356-.894,2.383,2.383,0,0,0-2.518,2.274c0,1.137.487,1.625,1.949,2.193a3.159,3.159,0,0,1,1.056.487.893.893,0,0,1,.487.812A1.132,1.132,0,0,1,15.381,29.3a1.894,1.894,0,0,1-1.706-1.056l-.975.975a3.185,3.185,0,0,0,2.762,1.543,2.562,2.562,0,0,0,2.762-2.6C18.223,26.786,17.736,26.218,15.949,25.568Z" transform="translate(-3.196 -22.4)" fill="#595a5b"/>
      <path id="Path_14725" data-name="Path 14725" d="M24.423,30.81a4.6,4.6,0,0,0,1.949-.487V28.455a2.526,2.526,0,0,1-1.868.894,2.625,2.625,0,0,1-2.681-2.762,3.038,3.038,0,0,1,.812-2.031L21.58,23.5A4.227,4.227,0,0,0,20.2,26.587a4.052,4.052,0,0,0,4.224,4.224Z" transform="translate(-4.604 -22.606)" fill="#595a5b"/>
      <path id="Path_14726" data-name="Path 14726" d="M59.13,27.13A2.143,2.143,0,0,0,61,24.856c0-1.462-1.056-2.356-2.843-2.356H55.8v7.96h1.543V27.292h.244L59.78,30.46h1.868L59.13,27.13Zm-1.3-.975h-.487V23.718h.487c.975,0,1.543.406,1.543,1.218S58.805,26.155,57.831,26.155Z" transform="translate(-11.287 -22.419)"/>
    </g>
    <g id="Group_8000" data-name="Group 8000" transform="translate(12.453 33.309)">
      <path id="Path_14727" data-name="Path 14727" d="M15.1,40.368V35.9l3.087,3.168V36.144h.65v4.468L15.75,37.443v2.924H15.1Z" transform="translate(-15.1 -35.9)" fill="#f26e21"/>
      <path id="Path_14728" data-name="Path 14728" d="M23.156,36.85H21.45v.975h1.625v.65H21.45v1.381h1.706v.569H20.8V36.2h2.356Z" transform="translate(-16.17 -35.956)" fill="#f26e21"/>
      <path id="Path_14729" data-name="Path 14729" d="M25.825,36.869v3.574h-.65V36.869H24.2V36.3h2.6v.569Z" transform="translate(-16.808 -35.975)" fill="#f26e21"/>
      <path id="Path_14730" data-name="Path 14730" d="M28.45,36.262l1.056,2.843L30.643,36.1,31.7,39.105l1.137-2.843h.812L31.78,40.73l-1.056-3.005L29.587,40.73,27.8,36.262Z" transform="translate(-17.484 -35.938)" fill="#f26e21"/>
      <path id="Path_14731" data-name="Path 14731" d="M35.1,38.293a2.193,2.193,0,1,1,2.193,2.193,1.957,1.957,0,0,1-1.462-.569A1.937,1.937,0,0,1,35.1,38.293Zm.65,0a1.475,1.475,0,0,0,.487,1.137,1.43,1.43,0,0,0,1.056.487,1.6,1.6,0,0,0,1.137-.487,1.625,1.625,0,0,0-1.137-2.762,1.6,1.6,0,0,0-1.137.487,1.941,1.941,0,0,0-.406,1.137Z" transform="translate(-18.855 -35.938)" fill="#f26e21"/>
      <path id="Path_14732" data-name="Path 14732" d="M42.962,38.637l1.3,1.787h-.812l-1.218-1.706H42.15v1.706H41.5V36.2h.731a1.686,1.686,0,0,1,1.218.325,1.3,1.3,0,0,1,.406.894.993.993,0,0,1-.244.731.762.762,0,0,1-.65.487Zm-.812-.487h.162c.569,0,.894-.244.894-.65s-.325-.65-.894-.65h-.244v1.3Z" transform="translate(-20.056 -35.956)" fill="#f26e21"/>
      <path id="Path_14733" data-name="Path 14733" d="M46.231,37.887l1.625-1.706h.812L46.8,38.049l1.868,2.274h-.812l-1.543-1.868-.162.162v1.706H45.5V36.1h.65v1.787Z" transform="translate(-20.807 -35.938)" fill="#f26e21"/>
    </g>
    <g id="Group_8001" data-name="Group 8001" transform="translate(39.989 25.999)">
      <path id="Path_14734" data-name="Path 14734" d="M52.087,29.987H50.625V28.525L49,26.9v4.386h4.386Z" transform="translate(-49 -26.9)" fill="#3b3d3f"/>
    </g>
    <g id="Group_8002" data-name="Group 8002" transform="translate(31.623 22.425)">
      <path id="Path_14735" data-name="Path 14735" d="M44.3,23.312l-1.787,4.549L40.406,22.5H38.7l3.33,8.2h.894l2.6-6.173Z" transform="translate(-38.7 -22.5)" fill="#3b3d3f"/>
    </g>
  </g>
</svg>
