<svg xmlns="http://www.w3.org/2000/svg" width="30" height="30.001" viewBox="0 0 30 30.001">
  <g id="Group_22882" data-name="Group 22882" transform="translate(20887 -978.999)">
    <circle id="Ellipse_863" data-name="Ellipse 863" cx="15" cy="15" r="15" transform="translate(-20887 979)" fill="#fff"/>
    <g id="Group_2012" data-name="Group 2012" transform="translate(-20887 978.999)">
      <path id="Subtraction_54" data-name="Subtraction 54" d="M4943.656-697.181h0a15.009,15.009,0,0,1-9.016-5.024A15,15,0,0,1,4931-712a14.9,14.9,0,0,1,4.394-10.607A14.9,14.9,0,0,1,4946-727a14.9,14.9,0,0,1,10.606,4.393A14.9,14.9,0,0,1,4961-712a15,15,0,0,1-3.639,9.8,15,15,0,0,1-9.016,5.023v-10.482h3.494L4952.5-712h-4.16v-2.814a2.151,2.151,0,0,1,2.357-2.341h1.978v-3.692a23.232,23.232,0,0,0-3.358-.293c-.134,0-.267,0-.4.01-3.3.16-5.271,2.338-5.271,5.826v3.3h-3.809v4.336h3.809v10.482Z" transform="translate(-4931 727)" fill="#3b5998"/>
    </g>
  </g>
</svg>
