<svg xmlns="http://www.w3.org/2000/svg" width="16.643" height="30.203" viewBox="0 0 16.643 30.203">
  <g id="restaurant-interface-symbol-of-fork-and-knife-couple" transform="translate(-121.263)">
    <g id="Group_2025" data-name="Group 2025" transform="translate(121.263)">
      <path id="Path_4247" data-name="Path 4247" d="M123.958,22.408v17.34a1.647,1.647,0,0,0,3.294,0V22.408c.5-.173,2.353-1.829,2.353-2.36V13.074a.834.834,0,0,0-1.668,0V18.5a.834.834,0,0,1-1.668,0V13.074a.834.834,0,0,0-1.668,0V18.5a.834.834,0,0,1-1.668,0V13.074a.834.834,0,0,0-1.668,0v6.974C121.263,20.579,123.463,22.234,123.958,22.408Z" transform="translate(-121.263 -11.556)" fill="#7d7d7d"/>
      <path id="Path_4248" data-name="Path 4248" d="M198.591,534.045l-.021,0-.021,0Z" transform="translate(-194.228 -504.184)" fill="#7d7d7d"/>
      <path id="Path_4249" data-name="Path 4249" d="M389.132,540.166l-.021,0-.021,0Z" transform="translate(-374.116 -509.963)" fill="#7d7d7d"/>
      <path id="Path_4250" data-name="Path 4250" d="M319.1,15.017H321V28.535a1.647,1.647,0,0,0,3.295,0V.834a.8.8,0,0,0-.248-.587A.8.8,0,0,0,323.457,0h-.6a4.017,4.017,0,0,0-2.946,1.225,4.018,4.018,0,0,0-1.225,2.946V14.6a.423.423,0,0,0,.417.417Z" transform="translate(-307.648)" fill="#7d7d7d"/>
    </g>
  </g>
</svg>
