<svg xmlns="http://www.w3.org/2000/svg" width="16" height="16" viewBox="0 0 16 16">
  <path id="Path_4235" data-name="Path 4235" d="M8.5.5a8,8,0,1,0,8,8A8.009,8.009,0,0,0,8.5.5Zm3.434,9.614C11.978,9.581,12,9.041,12,8.5s-.024-1.081-.069-1.614c1.97.429,3.018,1.165,3.018,1.614S13.9,9.685,11.934,10.114ZM8.5,14.952c-.449,0-1.185-1.048-1.614-3.018C7.419,11.978,7.959,12,8.5,12s1.081-.024,1.614-.069C9.685,13.9,8.949,14.952,8.5,14.952Zm0-4.5a18.1,18.1,0,0,1-1.859-.095,18.247,18.247,0,0,1,0-3.718,18.245,18.245,0,0,1,3.718,0A18.1,18.1,0,0,1,10.454,8.5a18.1,18.1,0,0,1-.095,1.859A18.1,18.1,0,0,1,8.5,10.454ZM2.048,8.5c0-.449,1.048-1.185,3.018-1.614C5.022,7.419,5,7.959,5,8.5s.024,1.081.069,1.614C3.1,9.685,2.048,8.949,2.048,8.5ZM8.5,2.048c.449,0,1.185,1.048,1.614,3.018C9.581,5.022,9.041,5,8.5,5s-1.081.024-1.614.069C7.315,3.1,8.051,2.048,8.5,2.048ZM14.484,6.1a11.145,11.145,0,0,0-2.76-.825,11.145,11.145,0,0,0-.825-2.76A6.48,6.48,0,0,1,14.484,6.1ZM6.1,2.516a11.145,11.145,0,0,0-.825,2.76,11.144,11.144,0,0,0-2.76.825A6.48,6.48,0,0,1,6.1,2.516ZM2.516,10.9a11.143,11.143,0,0,0,2.76.825,11.143,11.143,0,0,0,.825,2.76A6.481,6.481,0,0,1,2.516,10.9ZM10.9,14.484a11.144,11.144,0,0,0,.825-2.76,11.145,11.145,0,0,0,2.76-.825A6.48,6.48,0,0,1,10.9,14.484Z" transform="translate(-0.5 -0.5)" fill="#7d7d7d"/>
</svg>
