<svg xmlns="http://www.w3.org/2000/svg" width="15.999" height="16" viewBox="0 0 15.999 16">
  <g id="Group_22604" data-name="Group 22604" transform="translate(-1116 -2921)">
    <path id="Subtraction_90" data-name="Subtraction 90" d="M1450,1055h-10a3,3,0,0,1,0-6h10a3,3,0,1,1,0,6Zm-10-5a2,2,0,1,0,0,4h10a2,2,0,1,0,0-4Z" transform="translate(-321 1882)" fill="#989cb3"/>
    <path id="Subtraction_91" data-name="Subtraction 91" d="M1441,1057a4,4,0,1,1,4-4A4,4,0,0,1,1441,1057Zm0-7a3,3,0,1,0,3,3A3,3,0,0,0,1441,1050Z" transform="translate(-317 1872)" fill="#989cb3"/>
  </g>
</svg>
