<svg id="Outline" xmlns="http://www.w3.org/2000/svg" width="16" height="16" viewBox="0 0 16 16">
    <circle id="Ellipse_66" data-name="Ellipse 66" cx="2.4" cy="2.4" r="2.4" transform="translate(5.6 5.6)"
        fill="#FF9100" />
    <path id="Path_4131" data-name="Path 4131"
        d="M18,9.2H16.347A6.408,6.408,0,0,0,10.8,3.659V2H9.2V3.659A6.408,6.408,0,0,0,3.657,9.2H2v1.6H3.657A6.408,6.408,0,0,0,9.2,16.349V18h1.6V16.349A6.408,6.408,0,0,0,16.347,10.8H18Zm-8,5.6A4.8,4.8,0,1,1,14.8,10,4.8,4.8,0,0,1,10,14.8Z"
        transform="translate(-2.002 -2.004)" fill="#FF9100" />
</svg>