<svg xmlns="http://www.w3.org/2000/svg" xmlns:xlink="http://www.w3.org/1999/xlink" width="78.4" height="96" viewBox="0 0 78.4 96">
  <defs>
    <clipPath id="clip-path">
      <rect id="Rectangle_1387" data-name="Rectangle 1387" width="78.4" height="96" fill="#ff9100"/>
    </clipPath>
  </defs>
  <g id="Group_23351" data-name="Group 23351" transform="translate(0 0)">
    <g id="Group_8104" data-name="Group 8104" transform="translate(0 0)" clip-path="url(#clip-path)">
      <path id="Path_2937" data-name="Path 2937" d="M23,8.011A15.012,15.012,0,1,0,38,23.023,15,15,0,0,0,23,8.011m0,24.02a9.007,9.007,0,1,1,9-9.007,9,9,0,0,1-9,9.007" transform="translate(16.103 16.037)" fill="#ff9100"/>
      <path id="Path_2938" data-name="Path 2938" d="M57.65,4.735A39.054,39.054,0,0,0,4.729,57.7,187.088,187.088,0,0,0,29.352,92.017a11.989,11.989,0,0,0,9,4.062h1.363a11.989,11.989,0,0,0,9-4.062A187.089,187.089,0,0,0,73.329,57.7,39.084,39.084,0,0,0,57.65,4.735m9.881,51.036a181.147,181.147,0,0,1-23.3,32.249,6,6,0,0,1-4.519,2.054H38.347a5.992,5.992,0,0,1-4.519-2.054,181,181,0,0,1-23.3-32.249,33.043,33.043,0,1,1,57,0" transform="translate(0.075 -0.005)" fill="#ff9100"/>
    </g>
  </g>
</svg>
