<svg xmlns="http://www.w3.org/2000/svg" width="64" height="64" viewBox="0 0 64 64">
  <g id="Group_23550" data-name="Group 23550" transform="translate(-13493 -8263)">
    <path id="Path_28842" data-name="Path 28842" d="M2.188,2.079,20.446-3.864V50.012L2.188,43.764Z" transform="translate(13534 8272)" fill="#ff9100"/>
    <g id="_0701d92f2bf708e3be1e1092b3b3e6d5" data-name="0701d92f2bf708e3be1e1092b3b3e6d5" transform="translate(13492 8262)">
      <path id="Path_28828" data-name="Path 28828" d="M49.533,1H15.4A6.4,6.4,0,0,0,9,7.4V24.467a2.133,2.133,0,0,0,4.267,0V7.4A2.133,2.133,0,0,1,15.4,5.267H45.591l-11.733,4.4a2.133,2.133,0,0,0-1.391,2V54.333a2.133,2.133,0,0,0,1.385,2l11.74,4.4H15.4A2.133,2.133,0,0,1,13.267,58.6V41.533a2.133,2.133,0,0,0-4.267,0V58.6A6.4,6.4,0,0,0,15.4,65H49.533a6.4,6.4,0,0,0,6.4-6.4V7.4A6.4,6.4,0,0,0,49.533,1Zm-12.8,12.145,14.933-5.6v50.91l-14.933-5.6Z" transform="translate(9.067)"/>
      <path id="Path_28829" data-name="Path 28829" d="M25.092,25.425a2.133,2.133,0,1,0,3.017,3.017l6.4-6.4a2.133,2.133,0,0,0,0-3.017l-6.4-6.4a2.133,2.133,0,1,0-3.017,3.017L27.85,18.4H3.133a2.133,2.133,0,1,0,0,4.267H27.85Z" transform="translate(0 12.467)"/>
    </g>
  </g>
</svg>
