<svg xmlns="http://www.w3.org/2000/svg" width="25.601" height="32" viewBox="0 0 25.601 32">
    <g id="Group_9102" data-name="Group 9102" transform="translate(-68.219 -143)">
        <path id="Subtraction_62" data-name="Subtraction 62"
            d="M12.8,32a1.608,1.608,0,0,1-1.267-.623c-1.037-1.346-2.194-2.686-3.2-3.835l5.17-6.636a1.579,1.579,0,0,1,1.221-.634,1.222,1.222,0,0,1,.311.039,2.808,2.808,0,0,0,.707.091,3.933,3.933,0,0,0,2.924-1.636c1.7-2.025,2.635-5.409,1.249-6.573a1.921,1.921,0,0,0-1.272-.407,7.6,7.6,0,0,0-4.982,2.779c-1.418,1.691-1.268,3.023-.892,3.843a1.523,1.523,0,0,1-.319,1.614L7.021,26.035a46.42,46.42,0,0,1-4.9-6.386A13.274,13.274,0,0,1,0,12.8,12.8,12.8,0,0,1,18.019,1.114L13.9,6.35c-.55.7-2.223,2.829-2.95,3-.075,0-.149-.007-.222-.007a3.2,3.2,0,0,0-2.5,1.155l-.023.029L3.568,16.333c-.167.208-.187.462-.047.58l.009.006a.261.261,0,0,0,.171.058.563.563,0,0,0,.4-.217l4.646-5.536a.416.416,0,0,1,.3-.162.192.192,0,0,1,.125.042c.105.089.086.285-.042.438L4.484,17.08c-.174.208-.2.473-.059.592a.263.263,0,0,0,.171.058.561.561,0,0,0,.4-.218l4.646-5.537a.413.413,0,0,1,.3-.161.192.192,0,0,1,.125.042c.1.089.085.286-.042.438L5.38,17.831c-.173.208-.2.475-.058.594a.261.261,0,0,0,.17.058.566.566,0,0,0,.4-.219l4.646-5.536a.416.416,0,0,1,.3-.161.19.19,0,0,1,.125.042.2.2,0,0,1,.067.137.43.43,0,0,1-.108.3L6.277,18.584a.62.62,0,0,0-.148.33.3.3,0,0,0,.091.264l.009.006a.257.257,0,0,0,.17.059.55.55,0,0,0,.393-.205l4.915-5.578.023-.028a3.229,3.229,0,0,0,.658-2.883c.04-.748,1.846-2.763,2.439-3.425L19.5,1.9a12.806,12.806,0,0,1,6.1,10.9c0,5.213-3.782,9.535-7.786,14.11L17.734,27c-1.242,1.421-2.524,2.889-3.666,4.373A1.612,1.612,0,0,1,12.8,32Z"
            transform="translate(68.219 143)" fill="#ffffff" />
    </g>
</svg>