<svg xmlns="http://www.w3.org/2000/svg" width="26.668" height="16.001" viewBox="0 0 26.668 16.001">
  <g id="Group_2027" data-name="Group 2027" transform="translate(-0.5 -13.1)">
    <path id="Path_4251" data-name="Path 4251" d="M41.7,21.1a8,8,0,1,1-16,0h0a8,8,0,1,1,16,0Z" transform="translate(-14.533)" fill="#ffb600"/>
    <path id="Path_4252" data-name="Path 4252" d="M33.7,13.1a8.021,8.021,0,0,1,8,8h0a8,8,0,1,1-16,0" transform="translate(-14.533)" fill="#f7981d"/>
    <path id="Path_4253" data-name="Path 4253" d="M44.6,13.1a8.021,8.021,0,0,1,8,8h0a7.994,7.994,0,0,1-8,8" transform="translate(-25.432)" fill="#ff8500"/>
    <path id="Path_4254" data-name="Path 4254" d="M8.416,13.1a8,8,0,0,0,.085,16,8.094,8.094,0,0,0,5.376-2.074h0a7.606,7.606,0,0,0,.8-.847H13.03a9.765,9.765,0,0,1-.593-.8h2.836a5.423,5.423,0,0,0,.466-.847H11.971a5.045,5.045,0,0,1-.339-.847h4.4a8.4,8.4,0,0,0,.423-2.54,10.926,10.926,0,0,0-.169-1.693h-4.91a6.188,6.188,0,0,1,.212-.847h4.4a5.045,5.045,0,0,0-.339-.847H11.929a8.4,8.4,0,0,1,.466-.847h2.836a4.025,4.025,0,0,0-.635-.847H13.03a7.215,7.215,0,0,1,.8-.8,7.811,7.811,0,0,0-5.376-2.074C8.458,13.1,8.458,13.1,8.416,13.1Z" fill="#ff5050"/>
    <path id="Path_4255" data-name="Path 4255" d="M.5,21.216a7.994,7.994,0,0,0,8,8,8.094,8.094,0,0,0,5.376-2.074h0a7.607,7.607,0,0,0,.8-.847H13.03a9.765,9.765,0,0,1-.593-.8h2.836a5.423,5.423,0,0,0,.466-.847H11.971a5.045,5.045,0,0,1-.339-.847h4.4a8.4,8.4,0,0,0,.423-2.54,10.926,10.926,0,0,0-.169-1.693h-4.91a6.188,6.188,0,0,1,.212-.847h4.4a5.045,5.045,0,0,0-.339-.847H11.929a8.4,8.4,0,0,1,.466-.847h2.836a4.026,4.026,0,0,0-.635-.847H13.03a7.215,7.215,0,0,1,.8-.8A7.811,7.811,0,0,0,8.458,13.3H8.416" transform="translate(0 -0.115)" fill="#e52836"/>
    <path id="Path_4256" data-name="Path 4256" d="M19.285,29.216a8.094,8.094,0,0,0,5.376-2.074h0a7.607,7.607,0,0,0,.8-.847H23.814a9.765,9.765,0,0,1-.593-.8h2.836a5.423,5.423,0,0,0,.466-.847H22.756a5.045,5.045,0,0,1-.339-.847h4.4a8.4,8.4,0,0,0,.423-2.54,10.926,10.926,0,0,0-.169-1.693h-4.91a6.188,6.188,0,0,1,.212-.847h4.4a5.045,5.045,0,0,0-.339-.847H22.713a8.394,8.394,0,0,1,.466-.847h2.836a4.026,4.026,0,0,0-.635-.847H23.814a7.215,7.215,0,0,1,.8-.8A7.811,7.811,0,0,0,19.242,13.3H19.2" transform="translate(-10.784 -0.115)" fill="#cb2026"/>
    <path id="Path_4257" data-name="Path 4257" d="M12.375,31.206l.127-.72a1.833,1.833,0,0,1-.212.042c-.3,0-.339-.169-.3-.254l.254-1.482h.466l.127-.8h-.423l.085-.508h-.847s-.508,2.794-.508,3.132a.635.635,0,0,0,.677.72A1.3,1.3,0,0,0,12.375,31.206Zm.3-1.355a1.346,1.346,0,0,0,1.482,1.482,2.2,2.2,0,0,0,.889-.127l.169-.8a2.538,2.538,0,0,1-.889.212c-.931,0-.762-.677-.762-.677H15.3a5.488,5.488,0,0,0,.127-.762,1.147,1.147,0,0,0-1.228-1.228C13.306,27.862,12.671,28.793,12.671,29.851Zm1.482-1.228c.466,0,.381.55.381.593H13.6C13.6,29.174,13.687,28.624,14.152,28.624Zm5.376,2.582.169-.931a2.08,2.08,0,0,1-.72.212c-.593,0-.847-.466-.847-.974,0-1.016.508-1.566,1.1-1.566a1.414,1.414,0,0,1,.762.254l.127-.889a2.976,2.976,0,0,0-.974-.212c-.974,0-1.947.847-1.947,2.455,0,1.058.508,1.778,1.524,1.778A3.8,3.8,0,0,0,19.528,31.206ZM7.718,27.862a3,3,0,0,0-1.016.169l-.127.72a2.5,2.5,0,0,1,.931-.169c.3,0,.55.042.55.3,0,.169-.042.212-.042.212H7.634c-.72,0-1.524.3-1.524,1.27,0,.762.508.931.8.931A1.272,1.272,0,0,0,7.8,30.91l-.042.339h.762l.339-2.328A1,1,0,0,0,7.718,27.862Zm.169,1.9c0,.127-.085.8-.593.8a.33.33,0,0,1-.339-.339c0-.212.127-.508.762-.508A.668.668,0,0,0,7.888,29.767Zm1.778,1.524a1.085,1.085,0,0,0,1.27-1.1c0-1.058-1.016-.847-1.016-1.27,0-.212.169-.3.466-.3.127,0,.593.042.593.042L11.1,27.9a3.215,3.215,0,0,0-.8-.085c-.635,0-1.27.254-1.27,1.1,0,.974,1.058.889,1.058,1.27,0,.254-.3.3-.508.3a2.768,2.768,0,0,1-.762-.127l-.127.762C8.734,31.206,8.946,31.291,9.665,31.291Zm16.89-4.106-.169,1.143a1.174,1.174,0,0,0-.8-.423c-.762,0-1.439.931-1.439,2.032,0,.677.339,1.4,1.058,1.4a1.13,1.13,0,0,0,.8-.339l-.042.3h.847l.635-4.064Zm-.381,2.243c0,.466-.212,1.058-.677,1.058-.3,0-.466-.254-.466-.677,0-.677.3-1.1.677-1.1C26,28.709,26.174,28.92,26.174,29.428ZM3.1,31.248,3.612,28.2,3.7,31.248H4.29L5.39,28.2l-.466,3.048h.889l.677-4.064h-1.4l-.847,2.5-.042-2.5H2.977L2.3,31.248Zm13.122,0c.254-1.4.3-2.54.889-2.328a3.322,3.322,0,0,1,.3-.974h-.169c-.381,0-.677.508-.677.508l.085-.466h-.8l-.55,3.3h.931Zm5.249-3.386a3,3,0,0,0-1.016.169l-.127.72a2.5,2.5,0,0,1,.931-.169c.3,0,.55.042.55.3,0,.169-.042.212-.042.212h-.381c-.72,0-1.524.3-1.524,1.27,0,.762.508.931.8.931a1.272,1.272,0,0,0,.889-.381l-.042.339h.762l.339-2.328A.988.988,0,0,0,21.475,27.862Zm.212,1.9c0,.127-.085.8-.593.8a.33.33,0,0,1-.339-.339c0-.212.127-.508.762-.508C21.645,29.767,21.645,29.767,21.687,29.767Zm1.651,1.482c.254-1.4.3-2.54.889-2.328a3.322,3.322,0,0,1,.3-.974h-.169c-.381,0-.677.508-.677.508l.085-.466h-.8l-.55,3.3h.931Z" transform="translate(-1.038 -8.074)" fill="#fff"/>
    <g id="Group_2026" data-name="Group 2026" transform="translate(1.262 19.026)">
      <path id="Path_4258" data-name="Path 4258" d="M11.062,30.613a.635.635,0,0,0,.677.72,1.611,1.611,0,0,0,.635-.127l.127-.72a1.833,1.833,0,0,1-.212.042c-.3,0-.339-.169-.3-.254l.254-1.482h.466l.127-.8h-.423l.085-.508m.593,2.37c0,1.185.381,1.482,1.058,1.482a2.2,2.2,0,0,0,.889-.127l.169-.8a2.538,2.538,0,0,1-.889.212c-.931,0-.762-.677-.762-.677H15.3a5.488,5.488,0,0,0,.127-.762,1.147,1.147,0,0,0-1.228-1.228C13.306,27.862,13.094,28.793,13.094,29.851Zm1.058-1.228c.466,0,.55.55.55.593H13.6C13.6,29.174,13.687,28.624,14.152,28.624Zm5.376,2.582.169-.931a2.08,2.08,0,0,1-.72.212c-.593,0-.847-.466-.847-.974,0-1.016.508-1.566,1.1-1.566a1.414,1.414,0,0,1,.762.254l.127-.889a2.976,2.976,0,0,0-.974-.212c-.974,0-1.524.847-1.524,2.455,0,1.058.085,1.778,1.1,1.778A3.8,3.8,0,0,0,19.528,31.206ZM6.575,28.793a2.5,2.5,0,0,1,.931-.169c.3,0,.55.042.55.3,0,.169-.042.212-.042.212H7.634c-.72,0-1.524.3-1.524,1.27,0,.762.508.931.8.931a1.272,1.272,0,0,0,.889-.381l-.042.339h.762l.339-2.328c0-.974-.847-1.016-1.185-1.016m.635,1.82a1.386,1.386,0,0,1-1.016.8.33.33,0,0,1-.339-.339c0-.212.127-.508.762-.508A3.458,3.458,0,0,0,8.311,29.767Zm.423,1.439a3.583,3.583,0,0,0,.974.085,1.085,1.085,0,0,0,1.27-1.1c0-1.058-1.016-.847-1.016-1.27,0-.212.169-.3.466-.3.127,0,.593.042.593.042l.127-.762a3.215,3.215,0,0,0-.8-.085c-.635,0-.847.254-.847,1.1,0,.974.635.889.635,1.27,0,.254-.3.3-.508.3m16.763-2.159a1.174,1.174,0,0,0-.8-.423c-.762,0-1.016.931-1.016,2.032,0,.677-.085,1.4.635,1.4a1.13,1.13,0,0,0,.8-.339l-.042.3h.847l.635-4.064m-1.1,2.2c0,.466-.381,1.058-.847,1.058-.3,0-.466-.254-.466-.677,0-.677.3-1.1.677-1.1A.647.647,0,0,1,26.343,29.428ZM3.1,31.248,3.612,28.2,3.7,31.248H4.29L5.39,28.2l-.466,3.048h.889l.677-4.064H5.432l-1.185,2.5-.042-2.5H3.739L2.3,31.248Zm12.233,0h.889c.254-1.4.3-2.54.889-2.328a3.322,3.322,0,0,1,.3-.974h-.169c-.381,0-.677.508-.677.508l.085-.466m3.683.8a2.5,2.5,0,0,1,.931-.169c.3,0,.55.042.55.3,0,.169-.042.212-.042.212h-.381c-.72,0-1.524.3-1.524,1.27,0,.762.508.931.8.931a1.272,1.272,0,0,0,.889-.381l-.042.339h.762l.339-2.328c0-.974-.847-1.016-1.185-1.016m.635,1.82a1.386,1.386,0,0,1-1.016.8.33.33,0,0,1-.339-.339c0-.212.127-.508.762-.508A3.724,3.724,0,0,0,22.068,29.767Zm.381,1.482h.889c.254-1.4.3-2.54.889-2.328a3.322,3.322,0,0,1,.3-.974h-.169c-.381,0-.677.508-.677.508l.085-.466" transform="translate(-2.3 -27.1)" fill="#dce5e5"/>
    </g>
  </g>
</svg>
