<svg xmlns="http://www.w3.org/2000/svg" width="13.56" height="16.001" viewBox="0 0 13.56 16.001">
  <g id="Group_2029" data-name="Group 2029" transform="translate(-0.035 -0.816)">
    <path id="Path_4262" data-name="Path 4262" d="M11.58,2.023C10.839,1.178,9.5.816,7.787.816H2.814a.712.712,0,0,0-.7.6L.04,14.548a.427.427,0,0,0,.422.493h3.07l.771-4.89-.024.153a.71.71,0,0,1,.7-.6H6.438C9.3,9.7,11.548,8.54,12.2,5.172q.029-.149.051-.291h0a3.179,3.179,0,0,0-.675-2.859" transform="translate(0)" fill="#27346a"/>
    <path id="Path_4263" data-name="Path 4263" d="M5.478,4.433a.624.624,0,0,1,.269-.061h3.9a8.136,8.136,0,0,1,1.286.093q.165.026.328.063.231.051.457.125a3.519,3.519,0,0,1,.539.228,3.178,3.178,0,0,0-.675-2.859C10.839,1.178,9.5.816,7.787.816H2.814a.712.712,0,0,0-.7.6L.04,14.547a.427.427,0,0,0,.421.494h3.07L5.132,4.9A.623.623,0,0,1,5.478,4.433Z" fill="#27346a"/>
    <path id="Path_4264" data-name="Path 4264" d="M70.618,77.563c-.655,3.367-2.9,4.531-5.765,4.531H63.393a.709.709,0,0,0-.7.6l-.959,6.08a.374.374,0,0,0,.369.432H64.69a.623.623,0,0,0,.615-.525l.025-.132.488-3.091.031-.171a.623.623,0,0,1,.615-.525h.387c2.507,0,4.47-1.018,5.043-3.964a3.377,3.377,0,0,0-.518-2.98,2.472,2.472,0,0,0-.709-.547C70.654,77.367,70.637,77.464,70.618,77.563Z" transform="translate(-58.414 -72.391)" fill="#2790c3"/>
    <path id="Path_4265" data-name="Path 4265" d="M87.152,67.934q-.153-.045-.309-.079t-.328-.062a8.09,8.09,0,0,0-1.286-.094h-3.9a.623.623,0,0,0-.615.526l-.829,5.253-.024.153a.709.709,0,0,1,.7-.6h1.459c2.866,0,5.11-1.164,5.765-4.531.02-.1.036-.2.051-.291a3.54,3.54,0,0,0-.539-.228l-.147-.046" transform="translate(-75.584 -63.327)" fill="#1f264f"/>
  </g>
</svg>
