<svg xmlns="http://www.w3.org/2000/svg" width="12" height="16" viewBox="0 0 12 16">
  <g id="Group_23544" data-name="Group 23544" transform="translate(-1383 -28)">
    <path id="ae85f5aeeb9ad1d3df18962e747bd309" d="M10.406,9.05a1.6,1.6,0,1,0-1.6-1.6A1.6,1.6,0,0,0,10.406,9.05Zm-.568,5.533a.8.8,0,0,0,1.137,0L14.249,11.3a5.437,5.437,0,1,0-7.687,0ZM6.586,7.08a3.837,3.837,0,1,1,6.534,3.091l-2.714,2.714L7.691,10.171a3.819,3.819,0,0,1-1.1-3.091Z" transform="translate(1378.594 25.982)"/>
    <path id="ae85f5aeeb9ad1d3df18962e747bd309-2" data-name="ae85f5aeeb9ad1d3df18962e747bd309" d="M15.25,16.416H4.75a.8.8,0,0,0,0,1.6h10.5a.8.8,0,0,0,0-1.6Z" transform="translate(1379 25.982)"/>
  </g>
</svg>
