<svg xmlns="http://www.w3.org/2000/svg" width="30" height="30.001" viewBox="0 0 30 30.001">
  <g id="Group_22886" data-name="Group 22886" transform="translate(20687 -978.999)">
    <circle id="Ellipse_865" data-name="Ellipse 865" cx="15" cy="15" r="15" transform="translate(-20687 979)" fill="#fff"/>
    <g id="Group_2022" data-name="Group 2022" transform="translate(-20687 978.999)">
      <g id="Icons" transform="translate(0 0)">
        <g id="Color-">
          <path id="Pinterest" d="M315,260a15,15,0,0,0-6.02,28.739,13.244,13.244,0,0,1,.259-3.445c.289-1.217,1.929-8.172,1.929-8.172a5.777,5.777,0,0,1-.478-2.374c0-2.223,1.29-3.882,2.894-3.882a2.01,2.01,0,0,1,2.023,2.252c0,1.371-.875,3.423-1.325,5.322a2.321,2.321,0,0,0,2.368,2.889c2.842,0,4.756-3.65,4.756-7.975,0-3.286-2.214-5.747-6.241-5.747a7.1,7.1,0,0,0-7.384,7.181,4.329,4.329,0,0,0,.988,2.942.727.727,0,0,1,.215.837c-.071.274-.236.941-.3,1.2a.516.516,0,0,1-.75.376c-2.1-.856-3.073-3.15-3.073-5.731,0-4.26,3.594-9.372,10.72-9.372,5.727,0,9.5,4.147,9.5,8.594,0,5.885-3.271,10.281-8.095,10.281a4.3,4.3,0,0,1-3.664-1.869s-.871,3.456-1.055,4.122a12.518,12.518,0,0,1-1.509,3.212A15,15,0,1,0,315,260" transform="translate(-300 -260)" fill="#cb2027" fill-rule="evenodd"/>
        </g>
      </g>
    </g>
  </g>
</svg>
