<svg xmlns="http://www.w3.org/2000/svg" width="64.005" height="64" viewBox="0 0 64.005 64">
  <g id="Group_23551" data-name="Group 23551" transform="translate(-13596 -8263)">
    <rect id="Rectangle_17371" data-name="Rectangle 17371" width="13" height="8" transform="translate(13598 8288)" fill="#ff9100"/>
    <path id="Path_28844" data-name="Path 28844" d="M.057,0H7l4.938,24.32L.057,30.268Z" transform="translate(13632 8290)" fill="#ff9100"/>
    <g id="_18dc6dd1a7b25abd02b2cae1d685804c" data-name="18dc6dd1a7b25abd02b2cae1d685804c" transform="translate(13594 8261.006)">
      <path id="Path_28833" data-name="Path 28833" d="M45.283,39.5a8.029,8.029,0,0,1-8.042-8,7.847,7.847,0,0,1,1.276-4.32,7.986,7.986,0,0,1,2.777-2.619,8.077,8.077,0,0,1,6.721-.567A7.921,7.921,0,0,1,53.322,31.5a8.029,8.029,0,0,1-8.04,8Zm0-11.732A3.842,3.842,0,0,0,42.1,29.5a3.608,3.608,0,0,0-.591,2,3.774,3.774,0,0,0,7.547,0,3.681,3.681,0,0,0-2.489-3.494,3.547,3.547,0,0,0-1.284-.239ZM11.812,39.5a8,8,0,1,1,8.042-8A8.029,8.029,0,0,1,11.812,39.5Zm0-11.732A3.733,3.733,0,1,0,15.587,31.5,3.759,3.759,0,0,0,11.812,27.766Z" transform="translate(4.139 26.496)"/>
      <path id="Path_28834" data-name="Path 28834" d="M44.644,46.662H18.726V44.529A3.856,3.856,0,0,0,14.951,40.6a3.856,3.856,0,0,0-3.776,3.925v2.133H1V44.529a16.348,16.348,0,0,1,7.046-13.49l.6-.4a15.215,15.215,0,0,1,4.52-1.909l.22-.113.286-.017a11.946,11.946,0,0,1,3.345-.471h4.5l.488,1.455c.075.222.16.429.25.636l.073.119c.1.169.2.328.305.488a7.361,7.361,0,0,0,6.1,3.488,5.348,5.348,0,0,0,1.4-.158,6.677,6.677,0,0,0,2.92-1.378,6.762,6.762,0,0,0,1.288-1.3l.183-.209a1.779,1.779,0,0,0,.269-.358A10.057,10.057,0,0,0,34.343,19.2l-.751-.932L34,17.144c1.382-3.84,3.52-4.9,5.07-5.1a5.42,5.42,0,0,1,4.074,1.239c2.9,2.242,5.166,7.415,5.922,13.5a31.984,31.984,0,0,1,.241,5.343,8.464,8.464,0,0,1,3.208,6.715v3.238l-2.976-1.278a2.912,2.912,0,0,0-1.12-.19,3.785,3.785,0,0,0-1.86.527,3.912,3.912,0,0,0-1.308,1.276,3.974,3.974,0,0,0-.608,2.125v2.131ZM22.715,42.4H40.659a8.154,8.154,0,0,1,3.754-4.951,8.191,8.191,0,0,1,3.112-1.052,3.85,3.85,0,0,0-1.416-1.278l-1.267-.661.128-1.423a26.884,26.884,0,0,0-.141-5.73c-.691-5.57-2.713-9.424-4.3-10.653a1.444,1.444,0,0,0-.9-.382c-.294.041-.751.471-1.19,1.325a14.355,14.355,0,0,1-.064,15.619,5.664,5.664,0,0,1-.738.964A11.535,11.535,0,0,1,31.118,38.3a9.172,9.172,0,0,1-2.389.277,11.578,11.578,0,0,1-9.539-5.226l-.966-.96h-1.2a7.551,7.551,0,0,0-2.3.348l-.392.1a10.811,10.811,0,0,0-3.375,1.384l-.516.346a12,12,0,0,0-4.989,7.824H7.186a8,8,0,0,1,15.529,0Z" transform="translate(1 13.466)"/>
      <path id="Path_28835" data-name="Path 28835" d="M6.989,30.4H3V20.672C3,18.095,4.817,16,7.053,16h9.62c2.233,0,4.053,2.095,4.053,4.672v6.8a2.133,2.133,0,0,1-4.266,0v-6.8a1.013,1.013,0,0,0-.077-.405H7.343a1,1,0,0,0-.077.405v5.478A2.133,2.133,0,0,1,6.989,30.4Z" transform="translate(3.266 17.997)"/>
      <path id="Path_28836" data-name="Path 28836" d="M13.8,28.2H5.266A4.271,4.271,0,0,1,1,23.932v-6.4a4.271,4.271,0,0,1,4.266-4.266H13.8a4.271,4.271,0,0,1,4.266,4.266v6.4A4.271,4.271,0,0,1,13.8,28.2ZM5.266,17.533v6.4H13.8l0-6.4Zm34.121,2.122a2.136,2.136,0,0,1-1.807-.994l-4.032-6.389a2.134,2.134,0,0,1,3.609-2.278l4.032,6.389a2.133,2.133,0,0,1-1.8,3.272Z" transform="translate(1 10.065)"/>
      <path id="Path_28837" data-name="Path 28837" d="M20.52,19.929h-4.3a2.133,2.133,0,1,1,0-4.266h4.3a2.133,2.133,0,0,1,0,4.266Zm18.541,5.448A2.133,2.133,0,0,1,37,22.691,10.667,10.667,0,0,0,23.931,9.626,2.133,2.133,0,1,1,22.83,5.5,14.937,14.937,0,0,1,41.12,23.8a2.133,2.133,0,0,1-2.058,1.581Z" transform="translate(15.834 5.536)"/>
      <path id="Path_28838" data-name="Path 28838" d="M43.857,29.617a2.135,2.135,0,0,1-2.116-2.434A19.2,19.2,0,0,0,20.019,5.462a2.134,2.134,0,0,1-.6-4.226A23.468,23.468,0,0,1,45.966,27.783a2.133,2.133,0,0,1-2.11,1.834Z" transform="translate(19.793 0.997)"/>
    </g>
  </g>
</svg>
