<svg xmlns="http://www.w3.org/2000/svg" width="38.401" height="16" viewBox="0 0 38.401 16">
  <g id="Group_2030" data-name="Group 2030" transform="translate(0 -7)">
    <rect id="Rectangle_4598" data-name="Rectangle 4598" width="2.677" height="9.288" transform="translate(18.111 10.587)" fill="#646fde"/>
    <path id="Path_4266" data-name="Path 4266" d="M6.762,15.892c0-3.208-4.075-2.63-4.075-3.845l0,0c0-.419.349-.582.907-.589a5.921,5.921,0,0,1,2.653.691V9.618A7.041,7.041,0,0,0,3.6,9.127C1.44,9.127,0,10.266,0,12.17c0,2.982,4.051,2.5,4.051,3.784,0,.5-.426.661-1.021.661a6.673,6.673,0,0,1-2.917-.861V18.18a7.346,7.346,0,0,0,2.91.611C5.238,18.79,6.762,17.831,6.762,15.892Z" transform="translate(0 1.276)" fill="#646fde"/>
    <path id="Path_4267" data-name="Path 4267" d="M11.314,9.771,13.991,9.2V7l-2.677.576Z" transform="translate(6.789 0)" fill="#646fde"/>
    <path id="Path_4268" data-name="Path 4268" d="M23.618,9.937a2.977,2.977,0,0,0-2.088.843l-.138-.667H19.045V22.53l2.664-.571.006-3.043a2.967,2.967,0,0,0,1.885.68c1.909,0,3.648-1.406,3.648-4.826C27.255,11.641,25.492,9.937,23.618,9.937Zm-.635,7.426h0a1.584,1.584,0,0,1-1.254-.509l-.018-4a1.6,1.6,0,0,1,1.272-.534c.971,0,1.643,1.1,1.643,2.51C24.634,16.278,23.973,17.362,22.983,17.362Zm8.834-7.426c-2.533,0-4.075,2.176-4.075,4.918,0,3.243,1.818,4.742,4.411,4.742a5.918,5.918,0,0,0,2.952-.7V16.874a5.592,5.592,0,0,1-2.616.594c-1.038,0-1.95-.37-2.07-1.63h5.214c.011-.139.035-.7.035-.963h0C35.669,12.114,34.349,9.937,31.816,9.937Zm-1.422,3.917c0-1.213.739-1.722,1.4-1.722s1.35.51,1.35,1.722ZM9.192,12.41V10.117H7.17L7.163,7.783l-2.6.558-.011,8.634A2.582,2.582,0,0,0,7.318,19.6a4.12,4.12,0,0,0,1.874-.358v-2.05c-.342.139-2.022.637-2.022-.952V12.409H9.192Zm5.544.182V10.119a1.81,1.81,0,0,0-2.226.794l-.163-.794h-2.3v9.288H12.7V13.156A1.883,1.883,0,0,1,14.736,12.593Z" transform="translate(2.731 0.47)" fill="#646fde"/>
  </g>
</svg>
