<svg xmlns="http://www.w3.org/2000/svg" width="30" height="30" viewBox="0 0 30 30">
  <g id="Group_22883" data-name="Group 22883" transform="translate(20837 -979)">
    <circle id="Ellipse_862" data-name="Ellipse 862" cx="15" cy="15" r="15" transform="translate(-20837 979)" fill="#fff"/>
    <g id="Group_2013" data-name="Group 2013" transform="translate(-20837.346 978.998)">
      <path id="Subtraction_55" data-name="Subtraction 55" d="M4896.345-697a14.9,14.9,0,0,1-10.606-4.394A14.9,14.9,0,0,1,4881.346-712a14.9,14.9,0,0,1,4.394-10.606A14.9,14.9,0,0,1,4896.345-727a14.9,14.9,0,0,1,10.606,4.393A14.9,14.9,0,0,1,4911.346-712a14.9,14.9,0,0,1-4.394,10.607A14.9,14.9,0,0,1,4896.345-697Zm-9.9-8.7h0a11.334,11.334,0,0,0,6.123,1.794,11.256,11.256,0,0,0,11.366-11.366c0-.18,0-.349-.012-.516a8.129,8.129,0,0,0,2-2.071,7.959,7.959,0,0,1-2.295.629,3.991,3.991,0,0,0,1.756-2.21,7.962,7.962,0,0,1-2.537.97,4.013,4.013,0,0,0-2.917-1.261,4,4,0,0,0-3.995,3.995,4.029,4.029,0,0,0,.1.911,11.381,11.381,0,0,1-8.234-4.175,3.994,3.994,0,0,0-.541,2.009,3.991,3.991,0,0,0,1.776,3.324,4,4,0,0,1-1.81-.5v.051a4.005,4.005,0,0,0,3.2,3.917,4,4,0,0,1-1.052.139,4,4,0,0,1-.752-.07,4,4,0,0,0,3.731,2.775,7.971,7.971,0,0,1-4.961,1.711A8.132,8.132,0,0,1,4886.45-705.7Z" transform="translate(-4881 727)" fill="#4ebeed"/>
    </g>
  </g>
</svg>
