<svg xmlns="http://www.w3.org/2000/svg" width="47.659" height="16.001" viewBox="0 0 47.659 16.001">
  <g id="Group_2028" data-name="Group 2028" transform="translate(0 -16.177)">
    <path id="Path_4259" data-name="Path 4259" d="M17.2,32.159h3.857l2.479-15.427H19.406Z" transform="translate(-0.122 -0.004)" fill="#1565c0"/>
    <path id="Path_4260" data-name="Path 4260" d="M13.805,16.452,10.224,27.471l-.676-3.1a14.182,14.182,0,0,0-5.235-6.612L7.744,31.879h4.132l5.786-15.428H13.805Zm30.854,0H40.527L34.19,31.88h3.856l.826-2.2h4.958l.551,2.2h3.307ZM39.7,26.92l2.2-5.785,1.1,5.785Zm-11.02-6.061c0-.826.551-1.653,2.479-1.653a5.258,5.258,0,0,1,2.755,1.1L34.741,17a10.9,10.9,0,0,0-3.581-.826c-4.132,0-6.061,2.2-6.061,4.683,0,4.958,5.51,4.132,5.51,6.612,0,.551-.275,1.377-2.479,1.377a9.464,9.464,0,0,1-3.856-.826l-.551,3.305a8.587,8.587,0,0,0,4.132.826c2.479.275,6.337-1.928,6.337-5.235C34.191,23.064,28.681,22.789,28.681,20.859Z" transform="translate(-0.031)" fill="#1565c0"/>
    <path id="Path_4261" data-name="Path 4261" d="M9.642,25,8.265,18.109a2.373,2.373,0,0,0-2.2-1.377H0S7.989,19.211,9.642,25Z" transform="translate(0 -0.004)" fill="#ff9800"/>
  </g>
</svg>
