<svg xmlns="http://www.w3.org/2000/svg" width="64" height="59.923" viewBox="0 0 64 59.923">
  <g id="Group_23549" data-name="Group 23549" transform="translate(-13555 -8400)">
    <path id="Path_28843" data-name="Path 28843" d="M2.188,2.079,46.121,4.955,5.928,47.316l-3.74-3.553Z" transform="translate(13554.813 8409.91)" fill="#ff9100"/>
    <g id="_90d72be193cdd24a145aa41017717338" data-name="90d72be193cdd24a145aa41017717338" transform="translate(13554.773 8398.681)">
      <path id="Path_28839" data-name="Path 28839" d="M53.254,26.424a2.315,2.315,0,0,1-2.315-2.315V17.444a5,5,0,0,0-4.592-5.314H6.295a2.315,2.315,0,1,1,0-4.629H46.347a9.61,9.61,0,0,1,9.258,9.925v6.666a2.315,2.315,0,0,1-2.352,2.333Z" transform="translate(3.196 5.264)"/>
      <path id="Path_28840" data-name="Path 28840" d="M49.543,58.524H9.491A9.61,9.61,0,0,1,.233,48.6V6.825a2.315,2.315,0,0,1,4.629,0V48.6a4.981,4.981,0,0,0,4.592,5.3H49.543a4.981,4.981,0,0,0,4.592-5.3V43.9a2.315,2.315,0,1,1,4.629,0v4.7A9.61,9.61,0,0,1,49.543,58.524Z" transform="translate(0 2.718)"/>
      <path id="Path_28841" data-name="Path 28841" d="M48.579,17.394a2.315,2.315,0,0,1-2.315-2.278V9.987a4.166,4.166,0,0,0-4.3-4H8.638a3.574,3.574,0,0,0-3.7,3.426,3.574,3.574,0,0,0,3.7,3.426H29.007a2.315,2.315,0,1,1,0,4.629H8.583A8.2,8.2,0,0,1,.25,9.376,8.2,8.2,0,0,1,8.583,1.321h33.33a8.8,8.8,0,0,1,8.981,8.666v5.129a2.315,2.315,0,0,1-2.315,2.278ZM57.93,48.872H45.1a9.462,9.462,0,0,1-9.647-9.258V36.262A9.462,9.462,0,0,1,45.1,27H58.06a6.166,6.166,0,0,1,6.148,6.185V42.8h0A6.185,6.185,0,0,1,57.93,48.872ZM45.1,31.652a4.833,4.833,0,0,0-5.018,4.611v3.444A4.833,4.833,0,0,0,45.1,44.317H57.93A1.537,1.537,0,0,0,59.467,42.8v-9.61a1.444,1.444,0,0,0-.426-.981,1.5,1.5,0,0,0-1.074-.463Zm16.665,11.11Z" transform="translate(0.02 0)"/>
      <circle id="Ellipse_894" data-name="Ellipse 894" cx="2.315" cy="2.315" r="2.315" transform="translate(44.081 35.67)"/>
    </g>
  </g>
</svg>
