<svg xmlns="http://www.w3.org/2000/svg" width="30.001" height="30.001" viewBox="0 0 30.001 30.001">
  <g id="Group_22887" data-name="Group 22887" transform="translate(20637.001 -978.999)">
    <circle id="Ellipse_866" data-name="Ellipse 866" cx="15" cy="15" r="15" transform="translate(-20637 979)" fill="#fff"/>
    <g id="Group_2023" data-name="Group 2023" transform="translate(-20636.73 978.999)">
      <path id="Subtraction_60" data-name="Subtraction 60" d="M4695.729-697a14.9,14.9,0,0,1-10.606-4.394A14.9,14.9,0,0,1,4680.729-712a14.9,14.9,0,0,1,4.394-10.607A14.9,14.9,0,0,1,4695.729-727a14.9,14.9,0,0,1,10.606,4.394A14.9,14.9,0,0,1,4710.729-712a14.9,14.9,0,0,1-4.394,10.607A14.9,14.9,0,0,1,4695.729-697Zm.884-24.3a8.608,8.608,0,0,0-6.161,2.566,8.54,8.54,0,0,0-2.492,6.134,9.062,9.062,0,0,0,1.135,4.3l-1.229,4.491,4.586-1.182a8.482,8.482,0,0,0,4.114,1.04,8.686,8.686,0,0,0,8.653-8.7,8.562,8.562,0,0,0-2.505-6.1A8.544,8.544,0,0,0,4696.614-721.3Zm0,15.887a6.992,6.992,0,0,1-3.642-.993l-.284-.142-2.743.709.71-2.694-.189-.284a7.164,7.164,0,0,1-.888-5.468,7.053,7.053,0,0,1,3.2-4.415,7.326,7.326,0,0,1,3.817-1.083,7.057,7.057,0,0,1,6.065,3.4,7.242,7.242,0,0,1,.9,5.438,7.035,7.035,0,0,1-3.214,4.444A6.908,6.908,0,0,1,4696.614-705.412Zm-3.121-11.3a.6.6,0,0,0-.142.024.593.593,0,0,1-.142.024l-.047.047a1.007,1.007,0,0,0-.142.095,1.042,1.042,0,0,1-.142.095,1.2,1.2,0,0,0-.118.142,1.335,1.335,0,0,1-.119.142,2.408,2.408,0,0,0-.52,1.466,2.815,2.815,0,0,0,.236,1.088l.047.142a7.871,7.871,0,0,0,1.75,2.412l.189.189c.047.047.095.089.14.13l.006.005a1.292,1.292,0,0,1,.232.243,8.469,8.469,0,0,0,3.4,1.8,1.421,1.421,0,0,0,.236.047,1.393,1.393,0,0,1,.236.047h.473a1.751,1.751,0,0,0,.709-.189.973.973,0,0,1,.164-.086.491.491,0,0,0,.167-.1l.094-.095a1.268,1.268,0,0,1,.138-.115,1.21,1.21,0,0,0,.145-.121,1.26,1.26,0,0,0,.238-.284,2.8,2.8,0,0,0,.189-.662v-.331h0a.609.609,0,0,0-.142-.095l-.52-.236c-.006,0-.758-.332-1.229-.567h0a.168.168,0,0,1-.07-.023.171.171,0,0,0-.072-.024.684.684,0,0,0-.331.094s-.045.045-.709.8a.261.261,0,0,1-.236.142h-.047a.363.363,0,0,1-.189-.095l-.236-.095a4.6,4.6,0,0,1-1.372-.9,2.067,2.067,0,0,0-.161-.138l-.005,0a1.941,1.941,0,0,1-.165-.141,5.2,5.2,0,0,1-.9-1.135l-.047-.095a.251.251,0,0,1-.055-.1.939.939,0,0,0-.039-.091.356.356,0,0,1,.047-.236c.008-.01.193-.241.331-.378a.827.827,0,0,0,.114-.159l0-.006a.84.84,0,0,1,.119-.166.577.577,0,0,0,.095-.473,18.58,18.58,0,0,0-.757-1.8.547.547,0,0,0-.331-.236h-.52Z" transform="translate(-4681 727)" fill="#009846"/>
    </g>
  </g>
</svg>
