<svg xmlns="http://www.w3.org/2000/svg" width="26.666" height="16" viewBox="0 0 26.666 16">
  <g id="Group_7994" data-name="Group 7994" transform="translate(-0.5 -13.1)">
    <path id="Path_14679" data-name="Path 14679" d="M13.833,27.026A8,8,0,0,0,8.5,13.1a7.979,7.979,0,1,0,0,15.958A7.747,7.747,0,0,0,13.833,27.026Z" fill="#07a9e2" fill-rule="evenodd"/>
    <path id="Path_14680" data-name="Path 14680" d="M.5,21.1a7.985,7.985,0,0,0,8,7.958,7.706,7.706,0,0,0,5.333-2.074A7.979,7.979,0,0,0,8.5,13.1" fill="#009ddd" fill-rule="evenodd"/>
    <path id="Path_14681" data-name="Path 14681" d="M18.62,15.174A7.984,7.984,0,0,0,13.287,13.1h-.381a9.835,9.835,0,0,0-.042,15.958h.381a7.706,7.706,0,0,0,5.333-2.074,8,8,0,0,0,.042-11.809Z" transform="translate(-4.787)" fill="#0284cc" fill-rule="evenodd"/>
    <path id="Path_14682" data-name="Path 14682" d="M34.031,13.1a7.888,7.888,0,0,0-5.376,2.074,7.606,7.606,0,0,0-.8.847h1.608a6.049,6.049,0,0,1,.593.847H27.216a8.4,8.4,0,0,0-.466.847h3.767a7.057,7.057,0,0,1,.339.847h-4.4c-.085.3-.169.55-.254.847h4.91a7.415,7.415,0,0,1,.169,1.693,7.274,7.274,0,0,1-.423,2.54h-4.4a7.057,7.057,0,0,0,.339.847H30.56a5.422,5.422,0,0,1-.466.847H27.258a6.049,6.049,0,0,0,.593.847h1.608a7.606,7.606,0,0,1-.8.847A8.093,8.093,0,0,0,34.031,29.1a8,8,0,0,0,0-16Z" transform="translate(-14.822)" fill="#ff2957" fill-rule="evenodd"/>
    <path id="Path_14683" data-name="Path 14683" d="M34.031,13.1a7.888,7.888,0,0,0-5.376,2.074,7.606,7.606,0,0,0-.8.847h1.608a6.049,6.049,0,0,1,.593.847H27.216a8.4,8.4,0,0,0-.466.847h3.767a7.057,7.057,0,0,1,.339.847h-4.4c-.085.3-.169.55-.254.847h4.91a7.415,7.415,0,0,1,.169,1.693,7.274,7.274,0,0,1-.423,2.54h-4.4a7.057,7.057,0,0,0,.339.847H30.56a5.422,5.422,0,0,1-.466.847H27.258a6.049,6.049,0,0,0,.593.847h1.608a7.606,7.606,0,0,1-.8.847A8.093,8.093,0,0,0,34.031,29.1a7.948,7.948,0,0,0,7.958-7.958" transform="translate(-14.822)" fill="#ed1c2e" fill-rule="evenodd"/>
    <path id="Path_14684" data-name="Path 14684" d="M32,29.852A8,8,0,0,0,32,18Z" transform="translate(-18.167 -2.826)" fill="#0466b5" fill-rule="evenodd"/>
    <path id="Path_14685" data-name="Path 14685" d="M57,35.754a.254.254,0,1,1,.254.254A.273.273,0,0,1,57,35.754Zm.254.212c.127,0,.169-.085.169-.212a.155.155,0,0,0-.169-.169.194.194,0,0,0-.212.169A.272.272,0,0,0,57.254,35.966Zm0-.127h-.042v-.212h.127l.042.042c0,.042,0,.042-.042.042l.042.085h-.042l-.042-.085h-.042v.127Zm0-.127H57.3v-.042h-.042Z" transform="translate(-32.585 -12.919)" fill="#fff" fill-rule="evenodd"/>
    <path id="Path_14686" data-name="Path 14686" d="M28.655,15.281a7.606,7.606,0,0,0-.8.847h1.608a6.049,6.049,0,0,1,.593.847H27.216a8.4,8.4,0,0,0-.466.847h3.767a7.057,7.057,0,0,1,.339.847h-4.4c-.085.3-.169.55-.254.847h4.91a7.415,7.415,0,0,1,.169,1.693,7.274,7.274,0,0,1-.423,2.54h-4.4a7.057,7.057,0,0,0,.339.847H30.56a5.422,5.422,0,0,1-.466.847H27.258a6.049,6.049,0,0,0,.593.847h1.608a7.606,7.606,0,0,1-.8.847,8.093,8.093,0,0,0,5.376,2.074h.381a9.824,9.824,0,0,0,0-15.915h-.381A7.625,7.625,0,0,0,28.655,15.281Z" transform="translate(-14.822 -0.107)" fill="#d1094b" fill-rule="evenodd"/>
    <path id="Path_14687" data-name="Path 14687" d="M11.117,31.163H10.1l.593-3.09L9.34,31.163H8.451l-.169-3.09-.593,3.09H6.8L7.562,27.1H9.128l.085,2.54,1.1-2.54h1.608Z" transform="translate(-3.633 -8.074)" fill="#fff" fill-rule="evenodd"/>
    <path id="Path_14688" data-name="Path 14688" d="M14.642,29.443l.593-1.312-.466,2.455a3.963,3.963,0,0,0,.169.677h.677l.762-4.063H14.9a8.178,8.178,0,0,0-.3,2.074C14.642,29.316,14.642,29.359,14.642,29.443Z" transform="translate(-8.132 -8.132)" fill="#dce5e5" fill-rule="evenodd"/>
    <path id="Path_14689" data-name="Path 14689" d="M41.181,31.179a2.348,2.348,0,0,1-.72.127c-.508,0-.762-.254-.762-.72a.826.826,0,0,1,.042-.3l.042-.339.042-.254.466-2.5h.974l-.127.762h.508l-.127.762h-.508l-.254,1.354a.426.426,0,0,1-.042.127c0,.169.127.254.339.254.127,0,.212,0,.254-.042l-.127.762Z" transform="translate(-22.608 -8.132)" fill="#dce5e5" fill-rule="evenodd"/>
    <path id="Path_14690" data-name="Path 14690" d="M46.582,28.885c-.085-.042-.085-.042-.127-.042s-.085,0-.085-.042h-.127c-.339,0-.55.127-.847.55l.085-.508h-.889L44,32.144h1.016c.339-2.032.508-2.37.974-2.37h.127l.127.042Z" transform="translate(-25.087 -9.055)" fill="#dce5e5" fill-rule="evenodd"/>
    <path id="Path_14691" data-name="Path 14691" d="M33.381,29.9q0,.635.762.889c.423.169.466.212.466.381,0,.212-.169.3-.593.3a3.222,3.222,0,0,1-.889-.127L33,32.1h.042l.169.042h.254a3.036,3.036,0,0,0,.55.042c1.058,0,1.566-.339,1.566-1.1,0-.466-.212-.72-.72-.931-.423-.169-.466-.212-.466-.339q0-.254.508-.254a4.614,4.614,0,0,1,.72.042l.127-.762a6.251,6.251,0,0,0-.889-.042C33.762,28.8,33.381,29.308,33.381,29.9Z" transform="translate(-18.744 -9.055)" fill="#dce5e5" fill-rule="evenodd"/>
    <path id="Path_14692" data-name="Path 14692" d="M20.851,32.086h-.8v-.339a1.408,1.408,0,0,1-1.058.381.844.844,0,0,1-.889-.889c0-.8.635-1.27,1.735-1.27h.423a.566.566,0,0,0,.042-.212c0-.212-.169-.3-.635-.3a4.264,4.264,0,0,0-.8.085l-.127.042H18.65l.127-.72a4.419,4.419,0,0,1,1.185-.169c.847,0,1.312.339,1.312.974a2.543,2.543,0,0,1-.085.677l-.212,1.185-.042.212-.042.169v.127l-.042.042Zm-.72-1.481H19.92c-.55,0-.847.169-.847.508a.312.312,0,0,0,.339.339A.751.751,0,0,0,20.132,30.6Z" transform="translate(-10.15 -8.997)" fill="#dce5e5" fill-rule="evenodd"/>
    <path id="Path_14693" data-name="Path 14693" d="M28.609,32a4.175,4.175,0,0,1-1.016.127c-1.1,0-1.693-.508-1.693-1.481A1.775,1.775,0,0,1,27.635,28.7a1.171,1.171,0,0,1,1.312,1.185,3.126,3.126,0,0,1-.127.8H26.831v.127c0,.381.3.593.847.593a2.091,2.091,0,0,0,1.016-.212ZM28.1,30.054v-.169a.413.413,0,0,0-.466-.423.67.67,0,0,0-.635.593Z" transform="translate(-14.649 -8.997)" fill="#dce5e5" fill-rule="evenodd"/>
    <path id="Path_14694" data-name="Path 14694" d="M52.613,30.6a1.76,1.76,0,0,1-1.947,1.566A1.412,1.412,0,0,1,49.1,30.647,1.844,1.844,0,0,1,51.047,28.7a1.445,1.445,0,0,1,1.566,1.481V30.6Zm-1.058-.423c0-.339-.127-.635-.55-.635-.508,0-.8.593-.8,1.143,0,.423.212.72.55.72a.981.981,0,0,0,.762-.8,1.588,1.588,0,0,0,.042-.423Z" transform="translate(-28.029 -8.997)" fill="#fff" fill-rule="evenodd"/>
    <path id="Path_14695" data-name="Path 14695" d="M49.157,32.816a6.922,6.922,0,0,0,.085-.931V31.8a3.29,3.29,0,0,0-.085.677A.464.464,0,0,0,49.157,32.816Z" transform="translate(-28.043 -10.785)" fill="#fff" fill-rule="evenodd"/>
  </g>
</svg>
