<svg xmlns="http://www.w3.org/2000/svg" width="30.039" height="30.001" viewBox="0 0 30.039 30.001">
  <g id="Group_22885" data-name="Group 22885" transform="translate(20737.039 -978.999)">
    <circle id="Ellipse_864" data-name="Ellipse 864" cx="15" cy="15" r="15" transform="translate(-20737 979)" fill="#fff"/>
    <g id="Group_2021" data-name="Group 2021" transform="translate(-20737.039 978.999)">
      <path id="Path_4233" data-name="Path 4233" d="M22.042,19.759l-4.013-2.3c-.174-.1-.328.026-.328.226v4.479c0,.2.157.328.328.23l3.984-2.187a.259.259,0,0,0,.03-.452Zm0,0-4.013-2.3c-.174-.1-.328.026-.328.226v4.479c0,.2.157.328.328.23l3.984-2.187a.259.259,0,0,0,.03-.452Zm0,0-4.013-2.3c-.174-.1-.328.026-.328.226v4.479c0,.2.157.328.328.23l3.984-2.187a.259.259,0,0,0,.03-.452Zm0,0-4.013-2.3c-.174-.1-.328.026-.328.226v4.479c0,.2.157.328.328.23l3.984-2.187a.259.259,0,0,0,.03-.452Zm0,0-4.013-2.3c-.174-.1-.328.026-.328.226v4.479c0,.2.157.328.328.23l3.984-2.187a.259.259,0,0,0,.03-.452Zm0,0-4.013-2.3c-.174-.1-.328.026-.328.226v4.479c0,.2.157.328.328.23l3.984-2.187a.259.259,0,0,0,.03-.452Zm0,0-4.013-2.3c-.174-.1-.328.026-.328.226v4.479c0,.2.157.328.328.23l3.984-2.187a.259.259,0,0,0,.03-.452Zm0,0-4.013-2.3c-.174-.1-.328.026-.328.226v4.479c0,.2.157.328.328.23l3.984-2.187a.259.259,0,0,0,.03-.452Zm0,0-4.013-2.3c-.174-.1-.328.026-.328.226v4.479c0,.2.157.328.328.23l3.984-2.187a.259.259,0,0,0,.03-.452Zm0,0-4.013-2.3c-.174-.1-.328.026-.328.226v4.479c0,.2.157.328.328.23l3.984-2.187a.259.259,0,0,0,.03-.452Zm0,0-4.013-2.3c-.174-.1-.328.026-.328.226v4.479c0,.2.157.328.328.23l3.984-2.187a.259.259,0,0,0,.03-.452Zm0,0-4.013-2.3c-.174-.1-.328.026-.328.226v4.479c0,.2.157.328.328.23l3.984-2.187a.259.259,0,0,0,.03-.452Zm0,0-4.013-2.3c-.174-.1-.328.026-.328.226v4.479c0,.2.157.328.328.23l3.984-2.187a.259.259,0,0,0,.03-.452Zm0,0-4.013-2.3c-.174-.1-.328.026-.328.226v4.479c0,.2.157.328.328.23l3.984-2.187a.259.259,0,0,0,.03-.452Zm0,0-4.013-2.3c-.174-.1-.328.026-.328.226v4.479c0,.2.157.328.328.23l3.984-2.187a.259.259,0,0,0,.03-.452Zm0,0-4.013-2.3c-.174-.1-.328.026-.328.226v4.479c0,.2.157.328.328.23l3.984-2.187a.259.259,0,0,0,.03-.452Zm0,0-4.013-2.3c-.174-.1-.328.026-.328.226v4.479c0,.2.157.328.328.23l3.984-2.187a.259.259,0,0,0,.03-.452Zm0,0-4.013-2.3c-.174-.1-.328.026-.328.226v4.479c0,.2.157.328.328.23l3.984-2.187a.259.259,0,0,0,.03-.452Zm0,0-4.013-2.3c-.174-.1-.328.026-.328.226v4.479c0,.2.157.328.328.23l3.984-2.187a.259.259,0,0,0,.03-.452Zm0,0-4.013-2.3c-.174-.1-.328.026-.328.226v4.479c0,.2.157.328.328.23l3.984-2.187a.259.259,0,0,0,.03-.452ZM19.33,4.91a15,15,0,1,0,15,15A15,15,0,0,0,19.33,4.91Zm8.981,17.407a3.853,3.853,0,0,1-3.849,3.853H14.468a3.853,3.853,0,0,1-3.849-3.853V17.635a3.849,3.849,0,0,1,3.849-3.843h9.994a3.849,3.849,0,0,1,3.849,3.843Zm-6.269-2.557-4.013-2.3c-.174-.1-.328.026-.328.226v4.479c0,.2.157.328.328.23l3.984-2.187a.259.259,0,0,0,.03-.452Zm0,0-4.013-2.3c-.174-.1-.328.026-.328.226v4.479c0,.2.157.328.328.23l3.984-2.187a.259.259,0,0,0,.03-.452Zm0,0-4.013-2.3c-.174-.1-.328.026-.328.226v4.479c0,.2.157.328.328.23l3.984-2.187a.259.259,0,0,0,.03-.452Zm0,0-4.013-2.3c-.174-.1-.328.026-.328.226v4.479c0,.2.157.328.328.23l3.984-2.187a.259.259,0,0,0,.03-.452Zm0,0-4.013-2.3c-.174-.1-.328.026-.328.226v4.479c0,.2.157.328.328.23l3.984-2.187a.259.259,0,0,0,.03-.452Zm0,0-4.013-2.3c-.174-.1-.328.026-.328.226v4.479c0,.2.157.328.328.23l3.984-2.187a.259.259,0,0,0,.03-.452Zm0,0-4.013-2.3c-.174-.1-.328.026-.328.226v4.479c0,.2.157.328.328.23l3.984-2.187a.259.259,0,0,0,.03-.452Zm0,0-4.013-2.3c-.174-.1-.328.026-.328.226v4.479c0,.2.157.328.328.23l3.984-2.187a.259.259,0,0,0,.03-.452Zm0,0-4.013-2.3c-.174-.1-.328.026-.328.226v4.479c0,.2.157.328.328.23l3.984-2.187a.259.259,0,0,0,.03-.452Zm0,0-4.013-2.3c-.174-.1-.328.026-.328.226v4.479c0,.2.157.328.328.23l3.984-2.187a.259.259,0,0,0,.03-.452Zm0,0-4.013-2.3c-.174-.1-.328.026-.328.226v4.479c0,.2.157.328.328.23l3.984-2.187a.259.259,0,0,0,.03-.452Zm0,0-4.013-2.3c-.174-.1-.328.026-.328.226v4.479c0,.2.157.328.328.23l3.984-2.187a.259.259,0,0,0,.03-.452Zm0,0-4.013-2.3c-.174-.1-.328.026-.328.226v4.479c0,.2.157.328.328.23l3.984-2.187a.259.259,0,0,0,.03-.452Zm0,0-4.013-2.3c-.174-.1-.328.026-.328.226v4.479c0,.2.157.328.328.23l3.984-2.187a.259.259,0,0,0,.03-.452Zm0,0-4.013-2.3c-.174-.1-.328.026-.328.226v4.479c0,.2.157.328.328.23l3.984-2.187a.259.259,0,0,0,.03-.452Zm0,0-4.013-2.3c-.174-.1-.328.026-.328.226v4.479c0,.2.157.328.328.23l3.984-2.187a.259.259,0,0,0,.03-.452Zm0,0-4.013-2.3c-.174-.1-.328.026-.328.226v4.479c0,.2.157.328.328.23l3.984-2.187a.259.259,0,0,0,.03-.452Zm0,0-4.013-2.3c-.174-.1-.328.026-.328.226v4.479c0,.2.157.328.328.23l3.984-2.187a.259.259,0,0,0,.03-.452Zm0,0-4.013-2.3c-.174-.1-.328.026-.328.226v4.479c0,.2.157.328.328.23l3.984-2.187a.259.259,0,0,0,.03-.452Z" transform="translate(-4.33 -4.91)" fill="#ed2524"/>
    </g>
  </g>
</svg>
